<?xml version="1.0" encoding="UTF-8"?>
<svg version="1.1" xmlns="http://www.w3.org/2000/svg" width="690" height="361">
<path d="M0 0 C2.47046494 -0.0020247 4.9409293 -0.00493943 7.41139221 -0.00869751 C12.56102247 -0.01309639 17.71049557 -0.00676479 22.86010742 0.00732422 C29.44939025 0.02447769 36.03830808 0.01452029 42.62757778 -0.00339317 C47.71744022 -0.01424317 52.80721631 -0.01078011 57.89708138 -0.0030098 C60.32708848 -0.00101444 62.75710353 -0.00344362 65.18710136 -0.01044846 C68.57994221 -0.01808979 71.9721932 -0.00642326 75.36499023 0.01025391 C76.35994507 0.00418121 77.3548999 -0.00189148 78.38000488 -0.00814819 C86.11700297 0.06210034 92.68297326 1.35590468 98.62890625 6.7109375 C99.26441406 7.26394531 99.89992188 7.81695312 100.5546875 8.38671875 C105.55670535 14.09855731 105.89251541 19.54086347 105.73828125 26.8515625 C104.83098923 34.47953615 100.54836241 40.18275189 96.31640625 46.3984375 C95.53388661 47.78775307 94.76415297 49.18431 94.00390625 50.5859375 C92.0614278 54.14714799 89.96032707 57.55701478 87.75390625 60.9609375 C85.8015404 63.98773166 83.96779424 66.94906727 82.44140625 70.2109375 C80.19609203 74.96981144 77.22802366 79.28360059 74.31298828 83.65161133 C72.05825415 86.75868702 72.05825415 86.75868702 71.31640625 90.3984375 C70.65640625 90.3984375 69.99640625 90.3984375 69.31640625 90.3984375 C69.31640625 91.3884375 69.31640625 92.3784375 69.31640625 93.3984375 C68.65640625 93.3984375 67.99640625 93.3984375 67.31640625 93.3984375 C67.18685547 94.17767578 67.18685547 94.17767578 67.0546875 94.97265625 C66.03219645 98.33226969 64.2759989 101.20384742 62.50390625 104.2109375 C62.16037109 104.80197266 61.81683594 105.39300781 61.46289062 106.00195312 C60.77046477 107.19323739 60.0762981 108.38351156 59.38037109 109.57275391 C57.67249719 112.50333699 55.99560561 115.45134828 54.31640625 118.3984375 C53.65640625 118.3984375 52.99640625 118.3984375 52.31640625 118.3984375 C51.94515625 119.6359375 51.94515625 119.6359375 51.56640625 120.8984375 C49.71646384 126.07827626 47.36707046 130.82244119 44.31640625 135.3984375 C44.31640625 136.0584375 44.31640625 136.7184375 44.31640625 137.3984375 C43.72859375 137.63433594 43.14078125 137.87023437 42.53515625 138.11328125 C39.09410634 140.1064246 37.35494721 143.19596454 35.09765625 146.40234375 C33.15918439 148.57462253 32.15581904 149.0435109 29.31640625 149.3984375 C29.31640625 150.0584375 29.31640625 150.7184375 29.31640625 151.3984375 C13.89938104 160.5509078 0.80207687 165.69306712 -17.42211914 165.70483398 C-18.53907669 165.7131575 -19.65603424 165.72148102 -20.80683899 165.73005676 C-24.46501235 165.75397112 -28.12300701 165.76290383 -31.78125 165.76953125 C-34.34232127 165.77850799 -36.90339202 165.78763001 -39.46446228 165.79689026 C-44.81787717 165.81332968 -50.17122595 165.82110432 -55.5246582 165.82397461 C-61.68981288 165.82761418 -67.85447117 165.85756428 -74.01947409 165.89937919 C-79.98299804 165.93839053 -85.94637411 165.94956963 -91.91003227 165.95070076 C-94.43331036 165.95489471 -96.95658919 165.9672956 -99.47978401 165.98821831 C-103.01178095 166.01518948 -106.54241424 166.01029001 -110.07446289 165.99780273 C-111.10591431 166.01263702 -112.13736572 166.02747131 -113.20007324 166.04275513 C-121.01830798 165.9643743 -127.99571817 164.14611183 -133.62823582 158.42226315 C-137.30385108 153.93496644 -139.87532336 149.14708204 -139.5703125 143.18359375 C-139.34216866 141.24607367 -139.02070926 139.31999593 -138.68359375 137.3984375 C-139.74513672 137.88183594 -139.74513672 137.88183594 -140.828125 138.375 C-148.49340776 141.12233801 -156.33878075 139.7978526 -163.5703125 136.453125 C-164.26769531 136.10507813 -164.96507812 135.75703125 -165.68359375 135.3984375 C-166.59109375 135.0065625 -167.49859375 134.6146875 -168.43359375 134.2109375 C-172.91607888 130.6000467 -176.7204464 125.14485597 -177.68359375 119.3984375 C-178.3321878 111.95555496 -178.29549801 105.53812429 -173.68359375 99.3984375 C-164.74604132 90.46088507 -153.19754782 89.33504356 -141.06225586 89.2644043 C-137.93479793 89.27729744 -134.81026066 89.32619102 -131.68359375 89.3984375 C-132.24901379 88.07812155 -132.83665847 86.7673074 -133.43359375 85.4609375 C-133.92085938 84.36458984 -133.92085938 84.36458984 -134.41796875 83.24609375 C-135.52831567 81.2514183 -135.52831567 81.2514183 -137.59375 80.66015625 C-146.02502053 79.60427751 -152.52963085 81.20389106 -159.99609375 85.1484375 C-162.68359375 86.3984375 -162.68359375 86.3984375 -164.5859375 86.34765625 C-167.83331131 84.87817425 -169.03342495 82.42027447 -170.93359375 79.4609375 C-171.64 78.37941406 -172.34640625 77.29789062 -173.07421875 76.18359375 C-174.68359375 73.3984375 -174.68359375 73.3984375 -174.68359375 71.3984375 C-161.94736195 61.33595188 -146.30052129 59.84970623 -130.68359375 61.3984375 C-123.9503559 62.80679982 -118.18401549 66.15592494 -113.68359375 71.3984375 C-111.26573149 75.2168907 -109.68163973 78.99529346 -108.68359375 83.3984375 C-104.79299799 78.31904859 -102.08788305 73.32185416 -99.68359375 67.3984375 C-99.02359375 67.3984375 -98.36359375 67.3984375 -97.68359375 67.3984375 C-97.42578125 66.53476563 -97.16796875 65.67109375 -96.90234375 64.78125 C-95.65154525 61.30948236 -94.08806382 58.42872479 -92.18359375 55.2734375 C-90.23326721 52.02564797 -88.31932625 48.81711843 -86.68359375 45.3984375 C-86.02359375 45.3984375 -85.36359375 45.3984375 -84.68359375 45.3984375 C-84.31234375 44.0990625 -84.31234375 44.0990625 -83.93359375 42.7734375 C-82.61348656 39.20914809 -80.83198467 36.51706948 -78.68359375 33.3984375 C-78.35359375 32.4084375 -78.02359375 31.4184375 -77.68359375 30.3984375 C-76.53331288 29.21432484 -75.374835 28.03704151 -74.17578125 26.90234375 C-72.53308707 25.24674883 -71.1394192 23.47003004 -69.68359375 21.6484375 C-51.61391494 0.91338307 -25.42350053 -0.07378332 0 0 Z M-89.68359375 71.3984375 C-89.68359375 72.0584375 -89.68359375 72.7184375 -89.68359375 73.3984375 C-90.67359375 73.7284375 -91.66359375 74.0584375 -92.68359375 74.3984375 C-94.52642616 76.77092426 -94.52642616 76.77092426 -96.24609375 79.6484375 C-96.84550781 80.60234375 -97.44492187 81.55625 -98.0625 82.5390625 C-101.50321864 88.60799273 -102.04840361 93.2599 -102.05859375 100.1484375 C-102.08308594 101.004375 -102.10757813 101.8603125 -102.1328125 102.7421875 C-102.17131979 111.21379222 -99.39855015 117.78685901 -94.12109375 124.3984375 C-93.54230469 125.1409375 -92.96351563 125.8834375 -92.3671875 126.6484375 C-90.70215098 128.65026571 -90.70215098 128.65026571 -87.68359375 129.3984375 C-87.25046875 129.8521875 -86.81734375 130.3059375 -86.37109375 130.7734375 C-81.76465668 135.20926579 -75.75743851 136.31526852 -69.68359375 137.3984375 C-68.61625 137.62080078 -68.61625 137.62080078 -67.52734375 137.84765625 C-58.91591154 139.29849537 -50.14624313 136.75164964 -42.68359375 132.3984375 C-42.68359375 131.7384375 -42.68359375 131.0784375 -42.68359375 130.3984375 C-41.87921875 130.1096875 -41.07484375 129.8209375 -40.24609375 129.5234375 C-37.55094695 128.66581182 -37.55094695 128.66581182 -36.68359375 126.3984375 C-35.69359375 126.0684375 -34.70359375 125.7384375 -33.68359375 125.3984375 C-33.68359375 124.0784375 -33.68359375 122.7584375 -33.68359375 121.3984375 C-34.34359375 121.3984375 -35.00359375 121.3984375 -35.68359375 121.3984375 C-36.08191406 120.52445313 -36.08191406 120.52445313 -36.48828125 119.6328125 C-37.71662371 117.33669522 -39.08674314 115.59487732 -40.80859375 113.6484375 C-41.34742188 113.03484375 -41.88625 112.42125 -42.44140625 111.7890625 C-42.85132813 111.33015625 -43.26125 110.87125 -43.68359375 110.3984375 C-44.01359375 111.3884375 -44.34359375 112.3784375 -44.68359375 113.3984375 C-46.32393568 114.12747836 -47.99661293 114.78498993 -49.68359375 115.3984375 C-50.42609375 115.8934375 -51.16859375 116.3884375 -51.93359375 116.8984375 C-57.59828959 119.98827159 -62.63032935 120.99864659 -68.93359375 119.3359375 C-73.35061879 117.81329843 -75.66238002 115.89171588 -78.68359375 112.3984375 C-79.34359375 112.3984375 -80.00359375 112.3984375 -80.68359375 112.3984375 C-81.4809298 108.16936709 -81.84569421 104.13861942 -81.87109375 99.8359375 C-81.88527344 98.74152344 -81.89945313 97.64710938 -81.9140625 96.51953125 C-81.61697742 92.49629437 -80.84838508 89.69819206 -78.1328125 86.66796875 C-72.27999668 81.82739159 -68.00856998 79.93240654 -60.3203125 80.0703125 C-54.80683143 80.75643459 -50.2448028 83.35763147 -45.68359375 86.3984375 C-42.31221991 86.27476669 -41.03940713 85.76250961 -38.6640625 83.33203125 C-38.07238281 82.50832031 -37.48070312 81.68460938 -36.87109375 80.8359375 C-36.26652344 80.00964844 -35.66195312 79.18335938 -35.0390625 78.33203125 C-34.59175781 77.69394531 -34.14445312 77.05585938 -33.68359375 76.3984375 C-35.63855883 71.42216276 -39.11133162 69.11240231 -43.875 66.94921875 C-44.98746094 66.54058594 -46.09992188 66.13195312 -47.24609375 65.7109375 C-48.36113281 65.29457031 -49.47617187 64.87820312 -50.625 64.44921875 C-64.0227291 59.84642293 -78.64306503 62.25057084 -89.68359375 71.3984375 Z M-33.68359375 63.3984375 C-32.68359375 65.3984375 -32.68359375 65.3984375 -32.68359375 65.3984375 Z M-31.68359375 63.3984375 C-32.01359375 64.7184375 -32.34359375 66.0384375 -32.68359375 67.3984375 C-31.69359375 67.7284375 -30.70359375 68.0584375 -29.68359375 68.3984375 C-29.35359375 70.0484375 -29.02359375 71.6984375 -28.68359375 73.3984375 C-28.02359375 73.3984375 -27.36359375 73.3984375 -26.68359375 73.3984375 C-26.58046875 74.0171875 -26.47734375 74.6359375 -26.37109375 75.2734375 C-25.80834002 77.76370234 -25.80834002 77.76370234 -22.68359375 79.3984375 C-22.03810231 80.99517949 -21.39620869 82.59347898 -20.7734375 84.19921875 C-18.8548845 88.07070742 -16.07950571 91.35750975 -13.42578125 94.75 C-11.67401913 97.41299264 -11.05697169 99.26432568 -10.68359375 102.3984375 C-11.34359375 102.3984375 -12.00359375 102.3984375 -12.68359375 102.3984375 C-13.34359375 103.5121875 -14.00359375 104.6259375 -14.68359375 105.7734375 C-15.05484375 106.39992187 -15.42609375 107.02640625 -15.80859375 107.671875 C-16.83427723 109.37316417 -16.83427723 109.37316417 -16.68359375 111.3984375 C-17.34359375 111.3984375 -18.00359375 111.3984375 -18.68359375 111.3984375 C-23.53776294 116.91219656 -27.31549408 122.53473814 -29.015625 129.71875 C-29.23605469 130.27304688 -29.45648437 130.82734375 -29.68359375 131.3984375 C-31.16859375 131.8934375 -31.16859375 131.8934375 -32.68359375 132.3984375 C-32.68359375 133.0584375 -32.68359375 133.7184375 -32.68359375 134.3984375 C-33.67359375 135.3884375 -33.67359375 135.3884375 -34.68359375 136.3984375 C-27.42359375 136.3984375 -20.16359375 136.3984375 -12.68359375 136.3984375 C-12.35359375 135.0784375 -12.02359375 133.7584375 -11.68359375 132.3984375 C-10.19859375 131.9034375 -10.19859375 131.9034375 -8.68359375 131.3984375 C-6.68963118 128.73759781 -4.68359375 125.78601425 -4.68359375 122.3984375 C-4.02359375 122.3984375 -3.36359375 122.3984375 -2.68359375 122.3984375 C-0.97678428 120.77290467 0.6930082 119.10727755 2.31640625 117.3984375 C7.31640625 122.3984375 7.31640625 122.3984375 7.31640625 125.3984375 C7.97640625 126.0584375 8.63640625 126.7184375 9.31640625 127.3984375 C9.64640625 128.0584375 9.97640625 128.7184375 10.31640625 129.3984375 C11.30640625 129.3984375 12.29640625 129.3984375 13.31640625 129.3984375 C12.82140625 130.8834375 12.82140625 130.8834375 12.31640625 132.3984375 C13.30640625 132.8934375 13.30640625 132.8934375 14.31640625 133.3984375 C14.64640625 134.3884375 14.97640625 135.3784375 15.31640625 136.3984375 C22.24640625 136.3984375 29.17640625 136.3984375 36.31640625 136.3984375 C36.31640625 127.29399713 26.79683258 117.99478528 21.57421875 111.09765625 C14.20862425 101.36847546 14.20862425 101.36847546 14.56640625 98.1484375 C15.31640625 96.3984375 15.31640625 96.3984375 16.31640625 95.3984375 C17.23623095 94.00166666 18.1558201 92.60474015 19.07421875 91.20703125 C20.44265973 89.21461561 21.90242679 87.31198426 23.37890625 85.3984375 C25.24932608 82.94527381 26.6096584 80.81193321 28.00390625 78.0234375 C29.31640625 75.3984375 29.31640625 75.3984375 32.31640625 73.3984375 C32.31640625 72.4084375 32.31640625 71.4184375 32.31640625 70.3984375 C33.30640625 70.0684375 34.29640625 69.7384375 35.31640625 69.3984375 C35.64640625 68.4084375 35.97640625 67.4184375 36.31640625 66.3984375 C35.82140625 65.9034375 35.82140625 65.9034375 35.31640625 65.3984375 C36.30640625 64.7384375 37.29640625 64.0784375 38.31640625 63.3984375 C24.69076119 61.58384274 24.69076119 61.58384274 12.3359375 65.6015625 C10.54499988 68.49552793 9.3597439 71.1640908 8.31640625 74.3984375 C7.74252008 75.75663476 7.16099627 77.11167554 6.56640625 78.4609375 C5.94765625 79.915 5.94765625 79.915 5.31640625 81.3984375 C2.31640625 83.3984375 2.31640625 83.3984375 0.31640625 83.3984375 C0.18331055 82.81868164 0.05021484 82.23892578 -0.08691406 81.64160156 C-1.85103235 75.00955623 -5.15144447 67.64884816 -10.68359375 63.3984375 C-17.461974 61.41541464 -24.78889379 62.4088587 -31.68359375 63.3984375 Z M-153.68359375 108.3984375 C-155.10401196 111.23927391 -154.99811647 113.25321028 -154.68359375 116.3984375 C-153.50492745 118.99756001 -153.50492745 118.99756001 -150.68359375 120.3984375 C-145.36405435 121.29905572 -140.28389453 121.27850815 -135.55859375 118.4609375 C-132.73533642 116.12956032 -132.17124357 114.17987062 -131.74609375 110.5859375 C-131.69375253 109.19093029 -131.66230664 107.79426399 -131.68359375 106.3984375 C-134.41302912 106.34427009 -137.14137939 106.30468525 -139.87109375 106.2734375 C-140.64001953 106.25667969 -141.40894531 106.23992187 -142.20117188 106.22265625 C-146.44993259 106.1861862 -149.86760776 106.27926858 -153.68359375 108.3984375 Z M36.31640625 134.3984375 C36.97640625 135.0584375 37.63640625 135.7184375 38.31640625 136.3984375 C38.31640625 135.7384375 38.31640625 135.0784375 38.31640625 134.3984375 C37.65640625 134.3984375 36.99640625 134.3984375 36.31640625 134.3984375 Z " fill="#4D4B4C" transform="translate(555.68359375,98.6015625)"/>
<path d="M0 0 C5.62979624 4.29271963 8.45393923 9.85883116 10 16.6796875 C13.9126262 11.43218319 13.9126262 11.43218319 17 5.6796875 C17.5534764 7.75522398 18 9.52334714 18 11.6796875 C20.9719385 10.55517023 23.33440687 9.45674959 26 7.6796875 C24.54663734 11.79754836 22.41342727 15.05954659 20 18.6796875 C20 19.3396875 20 19.9996875 20 20.6796875 C19.34 20.6796875 18.68 20.6796875 18 20.6796875 C17.88244519 24.32524308 17.81230188 27.97030224 17.75 31.6171875 C17.71648437 32.63876953 17.68296875 33.66035156 17.6484375 34.71289062 C17.53118762 43.88769406 19.81872425 50.4839058 25.5625 57.6796875 C26.14128906 58.4221875 26.72007812 59.1646875 27.31640625 59.9296875 C28.98144277 61.93151571 28.98144277 61.93151571 32 62.6796875 C32 63.3396875 32 63.9996875 32 64.6796875 C33.65538958 65.37388313 35.32636023 66.03072514 37 66.6796875 C37.94746094 67.05867188 37.94746094 67.05867188 38.9140625 67.4453125 C52.00024741 72.29909745 63.16365747 70.31503341 76 65.6796875 C76 65.0196875 76 64.3596875 76 63.6796875 C77.30144802 62.63852909 78.63838689 61.64082616 80 60.6796875 C80.66 60.0196875 81.32 59.3596875 82 58.6796875 C82.66 58.6796875 83.32 58.6796875 84 58.6796875 C84.33 57.3596875 84.66 56.0396875 85 54.6796875 C84.34 54.6796875 83.68 54.6796875 83 54.6796875 C81.10731416 52.6798685 79.40114234 50.55904765 77.65625 48.4296875 C76.83640625 47.5634375 76.83640625 47.5634375 76 46.6796875 C73.6326984 46.47618488 73.6326984 46.47618488 71 48.9921875 C65.68642569 52.87773872 59.95436684 54.73062486 53.375 54.6171875 C43.218716 51.7959975 43.218716 51.7959975 40.76953125 47.54296875 C40.51558594 46.92808594 40.26164062 46.31320313 40 45.6796875 C39.34 45.6796875 38.68 45.6796875 38 45.6796875 C36.35375589 41.34849763 35.72814345 37.74531257 35.75 33.1171875 C35.74226563 31.47556641 35.74226563 31.47556641 35.734375 29.80078125 C36.19042578 24.44218453 37.73543195 21.46120334 41.8125 17.9921875 C47.26396711 13.50618594 51.31910572 12.22520958 58.36328125 12.3515625 C63.87676232 13.03768459 68.43879095 15.63888147 73 18.6796875 C74.32 18.6796875 75.64 18.6796875 77 18.6796875 C79.01691596 16.71029007 79.01691596 16.71029007 80.75 14.1796875 C81.67039062 12.92671875 81.67039062 12.92671875 82.609375 11.6484375 C83.06828125 10.99875 83.5271875 10.3490625 84 9.6796875 C82.59070303 6.20836655 81.09394917 4.79875476 77.875 2.9296875 C76.78832031 2.28773438 76.78832031 2.28773438 75.6796875 1.6328125 C75.12539063 1.31828125 74.57109375 1.00375 74 0.6796875 C75.32 0.0196875 76.64 -0.6403125 78 -1.3203125 C78.33 -0.3303125 78.66 0.6596875 79 1.6796875 C79.66 1.3496875 80.32 1.0196875 81 0.6796875 C81 0.0196875 81 -0.6403125 81 -1.3203125 C80.01 -2.3103125 80.01 -2.3103125 79 -3.3203125 C79.66 -3.9803125 80.32 -4.6403125 81 -5.3203125 C81.99 -4.8253125 81.99 -4.8253125 83 -4.3203125 C84.8863912 -4.2353975 86.77578515 -4.2131195 88.6640625 -4.22265625 C90.34628906 -4.22749023 90.34628906 -4.22749023 92.0625 -4.23242188 C93.8259375 -4.24499023 93.8259375 -4.24499023 95.625 -4.2578125 C96.80835938 -4.26232422 97.99171875 -4.26683594 99.2109375 -4.27148438 C102.14067507 -4.28329783 105.07031272 -4.29976992 108 -4.3203125 C108 -3.9903125 108 -3.6603125 108 -3.3203125 C101.07 -3.3203125 94.14 -3.3203125 87 -3.3203125 C87 -2.0003125 87 -0.6803125 87 0.6796875 C87.928125 1.3603125 87.928125 1.3603125 88.875 2.0546875 C91.69326418 4.20983069 91.89601306 6.36772669 93 9.6796875 C93.639375 10.1540625 94.27875 10.6284375 94.9375 11.1171875 C97.3814128 12.96863659 97.88410755 14.70810868 98.94140625 17.515625 C100.83989182 21.39666193 103.67608076 24.66149718 106.35546875 28.03125 C108.14593623 30.91471069 108.36587762 32.35679895 108 35.6796875 C107.34 35.6796875 106.68 35.6796875 106 35.6796875 C105.71125 36.6078125 105.4225 37.5359375 105.125 38.4921875 C104 41.6796875 104 41.6796875 102 44.6796875 C101.34 44.6796875 100.68 44.6796875 100 44.6796875 C99.6596875 45.7315625 99.6596875 45.7315625 99.3125 46.8046875 C97.68343133 50.37312363 95.59359269 52.74483261 93 55.6796875 C93.33 56.3396875 93.66 56.9996875 94 57.6796875 C93.01 57.6796875 92.02 57.6796875 91 57.6796875 C90.9175 58.3809375 90.835 59.0821875 90.75 59.8046875 C90 62.6796875 90 62.6796875 86 68.6796875 C92.6 68.6796875 99.2 68.6796875 106 68.6796875 C106.33 67.6896875 106.66 66.6996875 107 65.6796875 C107.66 65.3496875 108.32 65.0196875 109 64.6796875 C108.67 64.0196875 108.34 63.3596875 108 62.6796875 C108.99 62.3496875 109.98 62.0196875 111 61.6796875 C112.70855022 58.67961479 112.70855022 58.67961479 114 55.6796875 C114.66 55.6796875 115.32 55.6796875 116 55.6796875 C116.28875 55.0609375 116.5775 54.4421875 116.875 53.8046875 C118 51.6796875 118 51.6796875 120 49.6796875 C120.66 49.6796875 121.32 49.6796875 122 49.6796875 C126 54.15027574 126 54.15027574 126 56.6796875 C126.66 57.0096875 127.32 57.3396875 128 57.6796875 C128.2165625 58.6696875 128.2165625 58.6696875 128.4375 59.6796875 C128.623125 60.3396875 128.80875 60.9996875 129 61.6796875 C129.99 62.0096875 130.98 62.3396875 132 62.6796875 C133.64820195 65.28211164 134 66.54217529 134 69.6796875 C134.71655762 69.64415771 135.43311523 69.60862793 136.17138672 69.57202148 C139.40568015 69.41479524 142.64030386 69.26588806 145.875 69.1171875 C147.56689453 69.03307617 147.56689453 69.03307617 149.29296875 68.94726562 C150.90751953 68.87475586 150.90751953 68.87475586 152.5546875 68.80078125 C154.04718018 68.73008423 154.04718018 68.73008423 155.56982422 68.65795898 C158 68.6796875 158 68.6796875 160 69.6796875 C160.66 69.0196875 161.32 68.3596875 162 67.6796875 C162.33 68.6696875 162.66 69.6596875 163 70.6796875 C162.4121875 70.91558594 161.824375 71.15148437 161.21875 71.39453125 C157.77770009 73.3876746 156.03854096 76.47721454 153.78125 79.68359375 C151.84277814 81.85587253 150.83941279 82.3247609 148 82.6796875 C148 83.3396875 148 83.9996875 148 84.6796875 C132.58297479 93.8321578 119.48567062 98.97431712 101.26147461 98.98608398 C100.14451706 98.9944075 99.02755951 99.00273102 97.87675476 99.01130676 C94.2185814 99.03522112 90.56058674 99.04415383 86.90234375 99.05078125 C84.34127248 99.05975799 81.78020173 99.06888001 79.21913147 99.07814026 C73.86571658 99.09457968 68.5123678 99.10235432 63.15893555 99.10522461 C56.99378087 99.10886418 50.82912258 99.13881428 44.66411966 99.18062919 C38.70059571 99.21964053 32.73721964 99.23081963 26.77356148 99.23195076 C24.25028339 99.23614471 21.72700456 99.2485456 19.20380974 99.26946831 C15.6718128 99.29643948 12.14117951 99.29154001 8.60913086 99.27905273 C7.06195374 99.30130417 7.06195374 99.30130417 5.48352051 99.32400513 C-2.33471423 99.2456243 -9.31212442 97.42736183 -14.94464207 91.70351315 C-18.62025733 87.21621644 -21.19172961 82.42833204 -20.88671875 76.46484375 C-20.65857491 74.52732367 -20.33711551 72.60124593 -20 70.6796875 C-21.06154297 71.16308594 -21.06154297 71.16308594 -22.14453125 71.65625 C-29.80981401 74.40358801 -37.655187 73.0791026 -44.88671875 69.734375 C-45.58410156 69.38632813 -46.28148437 69.03828125 -47 68.6796875 C-47.9075 68.2878125 -48.815 67.8959375 -49.75 67.4921875 C-54.23248513 63.8812967 -58.03685265 58.42610597 -59 52.6796875 C-59.64859405 45.23680496 -59.61190426 38.81937429 -55 32.6796875 C-46.06244757 23.74213507 -34.51395407 22.61629356 -22.37866211 22.5456543 C-19.25120418 22.55854744 -16.12666691 22.60744102 -13 22.6796875 C-13.56542004 21.35937155 -14.15306472 20.0485574 -14.75 18.7421875 C-15.07484375 18.01128906 -15.3996875 17.28039062 -15.734375 16.52734375 C-16.84472192 14.5326683 -16.84472192 14.5326683 -18.91015625 13.94140625 C-27.34142678 12.88552751 -33.8460371 14.48514106 -41.3125 18.4296875 C-44 19.6796875 -44 19.6796875 -45.90234375 19.62890625 C-49.14971756 18.15942425 -50.3498312 15.70152447 -52.25 12.7421875 C-52.95640625 11.66066406 -53.6628125 10.57914063 -54.390625 9.46484375 C-56 6.6796875 -56 6.6796875 -56 4.6796875 C-41.21074073 -7.00482886 -16.13811548 -10.6536778 0 0 Z M85 -3.3203125 C86 -1.3203125 86 -1.3203125 86 -1.3203125 Z M-35 41.6796875 C-36.42041821 44.52052391 -36.31452272 46.53446028 -36 49.6796875 C-34.8213337 52.27881001 -34.8213337 52.27881001 -32 53.6796875 C-26.6804606 54.58030572 -21.60030078 54.55975815 -16.875 51.7421875 C-14.05174267 49.41081032 -13.48764982 47.46112062 -13.0625 43.8671875 C-13.01015878 42.47218029 -12.97871289 41.07551399 -13 39.6796875 C-15.72943537 39.62552009 -18.45778564 39.58593525 -21.1875 39.5546875 C-21.95642578 39.53792969 -22.72535156 39.52117187 -23.51757812 39.50390625 C-27.76633884 39.4674362 -31.18401401 39.56051858 -35 41.6796875 Z " fill="#504F50" transform="translate(437,165.3203125)"/>
<path d="M0 0 C9.39822196 5.71931271 15.92031287 13.49736921 19.1796875 24.05078125 C22.11153988 37.00314279 20.13544215 49.04573996 13.375 60.4453125 C8.34621203 67.98849445 0.07007385 73.07700445 -8.625 75.4453125 C-17.76247074 76.51884048 -25.94577758 75.12916737 -33.26586914 69.36621094 C-34.04438232 68.73231445 -34.82289551 68.09841797 -35.625 67.4453125 C-35.5842334 68.36868408 -35.5434668 69.29205566 -35.50146484 70.2434082 C-35.3551759 73.67041018 -35.21833689 77.09751913 -35.08789062 80.52514648 C-35.02950225 82.00837328 -34.96735407 83.49145705 -34.90136719 84.97436523 C-34.80715189 87.10634315 -34.72648425 89.23847031 -34.6484375 91.37109375 C-34.59606934 92.65411377 -34.54370117 93.93713379 -34.48974609 95.2590332 C-34.625 98.4453125 -34.625 98.4453125 -36.625 101.4453125 C-38.76391602 101.80175781 -38.76391602 101.80175781 -41.37890625 101.7734375 C-42.78366211 101.76570313 -42.78366211 101.76570313 -44.21679688 101.7578125 C-45.19712891 101.7371875 -46.17746094 101.7165625 -47.1875 101.6953125 C-48.66379883 101.68757813 -48.66379883 101.68757813 -50.16992188 101.6796875 C-57.47113458 101.59917792 -57.47113458 101.59917792 -58.625 100.4453125 C-58.72568417 97.31507766 -58.7611416 94.2068633 -58.75439453 91.07617188 C-58.75614685 90.09252151 -58.75789917 89.10887115 -58.75970459 88.09541321 C-58.76412505 84.82661197 -58.76118443 81.55786434 -58.7578125 78.2890625 C-58.75848548 76.02844228 -58.75945546 73.76782212 -58.76071167 71.50720215 C-58.76218891 66.76244418 -58.76003326 62.01770501 -58.75537109 57.27294922 C-58.7496738 51.17592626 -58.75295266 45.07894731 -58.75894356 38.98192596 C-58.76254848 34.31182521 -58.7614109 29.64173497 -58.75881577 24.97163391 C-58.7581463 22.72284439 -58.75897558 20.47405393 -58.76129532 18.2252655 C-58.76382071 15.08830212 -58.75998285 11.95141109 -58.75439453 8.81445312 C-58.75641876 7.87519485 -58.75844299 6.93593658 -58.76052856 5.96821594 C-58.73926225 -0.44042525 -58.73926225 -0.44042525 -57.625 -1.5546875 C-56.06327255 -1.64154353 -54.49770656 -1.66170969 -52.93359375 -1.65234375 C-51.98935547 -1.64912109 -51.04511719 -1.64589844 -50.07226562 -1.64257812 C-48.58243164 -1.63000977 -48.58243164 -1.63000977 -47.0625 -1.6171875 C-46.06541016 -1.61267578 -45.06832031 -1.60816406 -44.04101562 -1.60351562 C-41.56895151 -1.59168757 -39.09700482 -1.57520599 -36.625 -1.5546875 C-35.965 0.0953125 -35.305 1.7453125 -34.625 3.4453125 C-33.93792969 3.09597656 -33.25085938 2.74664062 -32.54296875 2.38671875 C-31.64191406 1.93167969 -30.74085937 1.47664062 -29.8125 1.0078125 C-28.91917969 0.55535156 -28.02585937 0.10289062 -27.10546875 -0.36328125 C-18.85404066 -4.32656561 -8.23836808 -3.87528499 0 0 Z M-31.625 21.4453125 C-35.62279293 27.16166886 -37.14711811 33.24408309 -36.2890625 40.1484375 C-34.97710521 46.38449421 -32.90816939 50.30694534 -27.8046875 54.1953125 C-23.08614249 56.90128813 -19.36305718 56.90269597 -14.0625 55.5078125 C-9.31560515 53.15073368 -4.68351048 48.51196858 -2.94140625 43.46484375 C-1.67463007 35.37937112 -2.71935848 28.91959867 -7.5 22.1953125 C-10.18011561 18.57505163 -12.45381872 16.79081036 -16.95703125 16.07421875 C-23.20757374 15.90688139 -27.31840021 16.71492497 -31.625 21.4453125 Z " fill="#55BAAC" transform="translate(86.625,162.5546875)"/>
<path d="M0 0 C5.62979624 4.29271963 8.45393923 9.85883116 10 16.6796875 C10.99 16.1846875 10.99 16.1846875 12 15.6796875 C11.67657623 16.39831467 11.35315247 17.11694183 11.01992798 17.85734558 C9.98446782 20.7226681 9.72715408 22.80871072 9.68115234 25.8371582 C9.66128265 26.83781815 9.64141296 27.83847809 9.62094116 28.86946106 C9.60938995 29.9373436 9.59783875 31.00522614 9.5859375 32.10546875 C9.56657135 33.20819626 9.5472052 34.31092377 9.5272522 35.44706726 C9.46757077 38.96202916 9.42111625 42.47702401 9.375 45.9921875 C9.33680974 48.37826933 9.2977574 50.76433753 9.2578125 53.15039062 C9.1618784 58.99337861 9.07780466 64.83643112 9 70.6796875 C2.4 70.6796875 -4.2 70.6796875 -11 70.6796875 C-11.495 67.2146875 -11.495 67.2146875 -12 63.6796875 C-14.84750194 65.25490134 -16.19035162 66.04334738 -18 68.6796875 C-18.84000699 73.34463199 -18.98718936 77.9461558 -19 82.6796875 C-21.58464442 78.29960307 -20.81479148 75.56843637 -20 70.6796875 C-21.06154297 71.16308594 -21.06154297 71.16308594 -22.14453125 71.65625 C-29.80981401 74.40358801 -37.655187 73.0791026 -44.88671875 69.734375 C-45.58410156 69.38632813 -46.28148437 69.03828125 -47 68.6796875 C-47.9075 68.2878125 -48.815 67.8959375 -49.75 67.4921875 C-54.23248513 63.8812967 -58.03685265 58.42610597 -59 52.6796875 C-59.64859405 45.23680496 -59.61190426 38.81937429 -55 32.6796875 C-46.06244757 23.74213507 -34.51395407 22.61629356 -22.37866211 22.5456543 C-19.25120418 22.55854744 -16.12666691 22.60744102 -13 22.6796875 C-13.56542004 21.35937155 -14.15306472 20.0485574 -14.75 18.7421875 C-15.07484375 18.01128906 -15.3996875 17.28039062 -15.734375 16.52734375 C-16.84472192 14.5326683 -16.84472192 14.5326683 -18.91015625 13.94140625 C-27.34142678 12.88552751 -33.8460371 14.48514106 -41.3125 18.4296875 C-44 19.6796875 -44 19.6796875 -45.90234375 19.62890625 C-49.14971756 18.15942425 -50.3498312 15.70152447 -52.25 12.7421875 C-52.95640625 11.66066406 -53.6628125 10.57914063 -54.390625 9.46484375 C-56 6.6796875 -56 6.6796875 -56 4.6796875 C-41.21074073 -7.00482886 -16.13811548 -10.6536778 0 0 Z M-35 41.6796875 C-36.42041821 44.52052391 -36.31452272 46.53446028 -36 49.6796875 C-34.8213337 52.27881001 -34.8213337 52.27881001 -32 53.6796875 C-26.6804606 54.58030572 -21.60030078 54.55975815 -16.875 51.7421875 C-14.05174267 49.41081032 -13.48764982 47.46112062 -13.0625 43.8671875 C-13.01015878 42.47218029 -12.97871289 41.07551399 -13 39.6796875 C-15.72943537 39.62552009 -18.45778564 39.58593525 -21.1875 39.5546875 C-21.95642578 39.53792969 -22.72535156 39.52117187 -23.51757812 39.50390625 C-27.76633884 39.4674362 -31.18401401 39.56051858 -35 41.6796875 Z " fill="#52B8AB" transform="translate(437,165.3203125)"/>
<path d="M0 0 C1.53482394 4.78602954 1.08922914 9.93535288 1.02734375 14.90234375 C1.01469876 16.86393054 1.0023377 18.82551917 0.99023438 20.78710938 C0.96541959 23.86586316 0.93742391 26.94451999 0.90405273 30.02319336 C0.87378239 33.00374965 0.85605673 35.98418245 0.83984375 38.96484375 C0.82638412 39.88063705 0.8129245 40.79643036 0.79905701 41.73997498 C0.78014574 46.57767924 1.10437141 50.45656863 3 55 C9.93295202 57.04536858 9.93295202 57.04536858 16.875 55.9375 C20.58321497 53.63840672 23.24944992 51.38857899 24.58872986 47.12640381 C25.02870036 44.85160955 25.15977668 42.73135729 25.20532227 40.41503906 C25.22526749 39.51440735 25.24521271 38.61377563 25.26576233 37.68585205 C25.28247482 36.72217712 25.29918732 35.7585022 25.31640625 34.765625 C25.33718735 33.77246277 25.35796844 32.77930054 25.37937927 31.75604248 C25.44469749 28.58743118 25.50367739 25.41873789 25.5625 22.25 C25.60570207 20.10025198 25.64931691 17.95051222 25.69335938 15.80078125 C25.8011365 10.53393694 25.90034204 5.26702925 26 0 C33.26 0 40.52 0 48 0 C49.4794228 2.95884561 49.12735706 5.6103184 49.12939453 8.91235352 C49.13202301 9.97839813 49.13202301 9.97839813 49.13470459 11.065979 C49.1391139 13.42031276 49.13618866 15.7745717 49.1328125 18.12890625 C49.13348573 19.76033035 49.13445591 21.39175435 49.13571167 23.0231781 C49.13718733 26.44376581 49.13503802 29.86432743 49.13037109 33.28491211 C49.12466937 37.67910872 49.12795644 42.07324432 49.13394356 46.4674387 C49.13754887 49.83620162 49.1364108 53.20494996 49.13381577 56.5737133 C49.13314665 58.19450831 49.1339744 59.81530462 49.13629532 61.4360981 C49.13882185 63.69644834 49.13498149 65.95669828 49.12939453 68.21704102 C49.12859894 69.50562515 49.12780334 70.79420929 49.12698364 72.12184143 C49 75 49 75 48 76 C46.43827255 76.08685603 44.87270656 76.10702219 43.30859375 76.09765625 C42.36435547 76.09443359 41.42011719 76.09121094 40.44726562 76.08789062 C39.45404297 76.07951172 38.46082031 76.07113281 37.4375 76.0625 C36.44041016 76.05798828 35.44332031 76.05347656 34.41601562 76.04882812 C31.94395151 76.03700007 29.47200482 76.02051849 27 76 C26.34 73.69 25.68 71.38 25 69 C24.360625 69.763125 23.72125 70.52625 23.0625 71.3125 C18.26963687 76.0382362 12.10436176 77.15991039 5.5625 77.4375 C-2.43724252 77.18016563 -9.57827082 74.29891924 -15.46484375 68.84375 C-20.56998354 62.71238618 -23.13231672 55.57302201 -23.11352539 47.68066406 C-23.11344986 46.61986633 -23.11337433 45.5590686 -23.11329651 44.46612549 C-23.10813522 43.32746033 -23.10297394 42.18879517 -23.09765625 41.015625 C-23.09553383 39.25952911 -23.09553383 39.25952911 -23.09336853 37.46795654 C-23.0877709 33.72861171 -23.0752188 29.98932674 -23.0625 26.25 C-23.0574847 23.71484461 -23.05292184 21.17968829 -23.04882812 18.64453125 C-23.03780224 12.42966707 -23.02106644 6.21483781 -23 0 C-19.54210946 -0.19635974 -16.08367803 -0.38058252 -12.625 -0.5625 C-11.64015625 -0.61857422 -10.6553125 -0.67464844 -9.640625 -0.73242188 C-8.69960937 -0.78076172 -7.75859375 -0.82910156 -6.7890625 -0.87890625 C-5.48509521 -0.94960327 -5.48509521 -0.94960327 -4.15478516 -1.02172852 C-2 -1 -2 -1 0 0 Z " fill="#5EBEB1" transform="translate(137,161)"/>
<path d="M0 0 C3.64581687 -0.02887512 7.29160463 -0.04675585 10.9375 -0.0625 C12.49887695 -0.07506836 12.49887695 -0.07506836 14.09179688 -0.08789062 C15.57583008 -0.09272461 15.57583008 -0.09272461 17.08984375 -0.09765625 C18.46450806 -0.10551147 18.46450806 -0.10551147 19.86694336 -0.11352539 C22 0 22 0 23 1 C23.11210641 2.50768765 23.15672979 4.02047069 23.17358398 5.53222656 C23.18707382 6.49702942 23.20056366 7.46183228 23.21446228 8.45587158 C23.22490067 9.50684021 23.23533905 10.55780884 23.24609375 11.640625 C23.27904059 13.84766009 23.3122521 16.05469124 23.34570312 18.26171875 C23.39308678 21.75534263 23.4374882 25.24895149 23.47680664 28.74267578 C23.51655268 32.10466693 23.56810336 35.46632018 23.62109375 38.828125 C23.6295079 39.8709967 23.63792206 40.91386841 23.64659119 41.98834229 C23.66323318 42.96575378 23.67987518 43.94316528 23.69702148 44.95019531 C23.70732895 45.80655579 23.71763641 46.66291626 23.72825623 47.54522705 C24.03825798 50.34560006 24.7504024 52.47880551 26 55 C29.74503167 56.80747415 34.01911187 57.388841 38.109375 56.5859375 C41.77107689 55.16194232 44.21323261 53.47949439 46 50 C47.78909727 44.02649192 48.2611954 38.75011629 48.16015625 32.5390625 C48.15495468 31.66728363 48.14975311 30.79550476 48.14439392 29.89730835 C48.12672187 27.13969486 48.09553946 24.38246866 48.0625 21.625 C48.03487005 18.84614798 48.01019662 16.06734721 47.99131775 13.28842163 C47.97906679 11.56557487 47.96146911 9.84275615 47.93800354 8.12002563 C47.88830356 2.22339288 47.88830356 2.22339288 49 0 C56.26 0 63.52 0 71 0 C71 25.08 71 50.16 71 76 C63.74 76 56.48 76 49 76 C48.505 72.535 48.505 72.535 48 69 C47.154375 69.763125 46.30875 70.52625 45.4375 71.3125 C39.23691102 76.37655411 33.98524804 77.58125275 26.05859375 77.34375 C17.54823364 76.38728552 10.61302156 72.42969675 5 66 C1.67481356 60.75680748 -0.12778947 55.84399887 -0.11352539 49.6105957 C-0.11344986 48.50968094 -0.11337433 47.40876617 -0.11329651 46.27449036 C-0.10813522 45.08691635 -0.10297394 43.89934235 -0.09765625 42.67578125 C-0.0962413 41.45924362 -0.09482635 40.24270599 -0.09336853 38.98930359 C-0.08776312 35.0970109 -0.07520967 31.20477536 -0.0625 27.3125 C-0.0574857 24.67643312 -0.05292267 22.04036534 -0.04882812 19.40429688 C-0.03779193 12.93617836 -0.0210485 6.46809326 0 0 Z " fill="#4FB9AB" transform="translate(261,161)"/>
<path d="M0 0 C0.78681152 0.00612305 1.57362305 0.01224609 2.38427734 0.01855469 C8.91156034 0.19283006 14.30857485 1.542056 20.1875 4.4375 C21.39599609 5.00984375 21.39599609 5.00984375 22.62890625 5.59375 C24.5001043 6.50494209 26.34726156 7.46529856 28.1875 8.4375 C27.49988981 12.09314909 25.93300455 14.95617272 24.125 18.1875 C23.57714844 19.17234375 23.02929688 20.1571875 22.46484375 21.171875 C21.83255859 22.29335937 21.83255859 22.29335937 21.1875 23.4375 C17.30239937 23.4375 16.35110675 23.1944598 13.125 21.5 C6.39077149 18.36107035 -0.5937616 17.73668214 -7.8125 19.4375 C-7.69908466 21.84627257 -7.69908466 21.84627257 -6.8125 24.4375 C-1.76256501 28.24531388 4.65887271 29.70605344 10.61914062 31.56835938 C17.58322978 33.87570665 23.22247791 37.08989442 28.125 42.625 C30.32680599 48.45330997 31.09613421 54.79377163 29 60.75 C25.47435961 68.5510776 21.1644062 73.36855547 13.25 76.6875 C1.29453495 80.72066893 -12.33098874 78.98690196 -23.63916016 73.56103516 C-27.14683151 71.70031089 -30.50453991 69.63048658 -33.8125 67.4375 C-33.3012988 62.93406089 -31.63728642 60.56224574 -28.75 57.125 C-28.01652344 56.24199219 -27.28304687 55.35898438 -26.52734375 54.44921875 C-25.96144531 53.78535156 -25.39554688 53.12148437 -24.8125 52.4375 C-21.78977064 53.60288963 -18.95479245 54.86607512 -16.125 56.4375 C-9.25532258 59.89826202 -2.32490523 61.15909287 5.1875 59.4375 C5.8475 59.1075 6.5075 58.7775 7.1875 58.4375 C6.81147079 54.7572398 6.81147079 54.7572398 4.54296875 51.99609375 C0.16478365 49.73205929 -4.09854652 47.96066164 -8.8125 46.5 C-16.58047934 44.04278204 -23.20547744 40.34803384 -27.8125 33.4375 C-30.36909052 28.32431896 -29.53443214 20.3712115 -28.19921875 14.9453125 C-25.27758928 8.3298167 -19.60603114 4.50621826 -13.09765625 1.796875 C-8.70024386 0.2186438 -4.64316519 -0.06200221 0 0 Z " fill="#54BAAC" transform="translate(226.8125,159.5625)"/>
<path d="M0 0 C0.91644287 0.00523682 1.83288574 0.01047363 2.77709961 0.01586914 C3.76645508 0.0190918 4.75581055 0.02231445 5.77514648 0.02563477 C6.81606445 0.03401367 7.85698242 0.04239258 8.92944336 0.05102539 C10.49662109 0.05779297 10.49662109 0.05779297 12.09545898 0.06469727 C14.68600996 0.07652627 17.27644895 0.0930085 19.86694336 0.11352539 C19.89006406 13.52578333 19.90785705 26.93803656 19.91875553 40.35031033 C19.92398496 46.57746011 19.93108369 52.80459631 19.94238281 59.03173828 C19.95320957 65.03579404 19.95921974 71.03983668 19.9618206 77.04390144 C19.96367523 79.34014149 19.96729657 81.63638078 19.97267342 83.93261528 C19.97988104 87.13673353 19.98093442 90.34079689 19.98046875 93.54492188 C19.98406403 94.50445267 19.9876593 95.46398346 19.99136353 96.45259094 C19.98998886 97.32062347 19.9886142 98.18865601 19.98719788 99.08299255 C19.98811967 99.84162818 19.98904146 100.60026381 19.98999119 101.38188839 C19.86694336 103.11352539 19.86694336 103.11352539 18.86694336 104.11352539 C17.31738777 104.21252062 15.76340663 104.24432063 14.21069336 104.24633789 C12.80110352 104.24827148 12.80110352 104.24827148 11.36303711 104.25024414 C9.8799707 104.24444336 9.8799707 104.24444336 8.36694336 104.23852539 C7.37823242 104.24239258 6.38952148 104.24625977 5.37084961 104.25024414 C4.43112305 104.24895508 3.49139648 104.24766602 2.52319336 104.24633789 C1.65500977 104.24520996 0.78682617 104.24408203 -0.10766602 104.24291992 C-2.13305664 104.11352539 -2.13305664 104.11352539 -3.13305664 103.11352539 C-3.23375443 99.95276195 -3.26919687 96.81380512 -3.26245117 93.65258789 C-3.26420349 92.65918396 -3.26595581 91.66578003 -3.26776123 90.64227295 C-3.27218175 87.34100627 -3.26924105 84.03979267 -3.26586914 80.73852539 C-3.26654212 78.45548492 -3.2675121 76.17244452 -3.26876831 73.8894043 C-3.27024555 69.09756795 -3.26808987 64.30575021 -3.26342773 59.51391602 C-3.25773044 53.35635904 -3.2610093 47.19884565 -3.2670002 41.04129028 C-3.2706051 36.32486642 -3.26946755 31.60845298 -3.26687241 26.89202881 C-3.26620294 24.62091059 -3.26703224 22.34979145 -3.26935196 20.07867432 C-3.27187731 16.91057817 -3.26803954 13.74255367 -3.26245117 10.57446289 C-3.2644754 9.62585388 -3.26649963 8.67724487 -3.26858521 7.69989014 C-3.24385184 0.17264405 -3.24385184 0.17264405 0 0 Z " fill="#64C1B5" transform="translate(348.133056640625,132.886474609375)"/>
<path d="M0 0 C5.94 0 11.88 0 18 0 C18 23.76 18 47.52 18 72 C2 72 2 72 0 71 C0 68.36 0 65.72 0 63 C-3.44766845 64.14922282 -3.95144295 65.14983367 -6 68 C-8 69 -8 69 -11 69 C-10.814375 68.236875 -10.62875 67.47375 -10.4375 66.6875 C-9.77180827 63.91032625 -9.77180827 63.91032625 -11 61 C-10.04701223 59.63266972 -9.04625409 58.29735507 -8 57 C-8 56.34 -8 55.68 -8 55 C-7.0409375 54.319375 -7.0409375 54.319375 -6.0625 53.625 C-3.68158413 51.74912689 -3.57334624 50.86673118 -3 48 C-2.01 47.505 -2.01 47.505 -1 47 C-0.67 31.49 -0.34 15.98 0 0 Z " fill="#4FB9AB" transform="translate(165,163)"/>
<path d="M0 0 C7.26 0 14.52 0 22 0 C22 25.08 22 50.16 22 76 C14.74 76 7.48 76 0 76 C-0.33 73.69 -0.66 71.38 -1 69 C-1.99 69.495 -1.99 69.495 -3 70 C-3.33 69.01 -3.66 68.02 -4 67 C-1.525 66.01 -1.525 66.01 1 65 C2 66 2 66 2 74 C7.94 74 13.88 74 20 74 C20 50.24 20 26.48 20 2 C14.39 2 8.78 2 3 2 C2.98018066 3.3725293 2.96036133 4.74505859 2.93994141 6.15917969 C2.86387655 11.25083786 2.77516021 16.3422106 2.68261719 21.43359375 C2.64433114 23.63731247 2.60947763 25.84109361 2.578125 28.04492188 C2.5324667 31.21246652 2.47447298 34.37958162 2.4140625 37.546875 C2.39673569 39.02519806 2.39673569 39.02519806 2.37905884 40.53338623 C2.35918915 41.4540387 2.33931946 42.37469116 2.31884766 43.32324219 C2.30552399 44.1315448 2.29220032 44.93984741 2.2784729 45.77264404 C1.97276952 48.21780207 1.21952494 49.87506846 0 52 C-0.66 52 -1.32 52 -2 52 C-2.33 52.99 -2.66 53.98 -3 55 C-3.99 54.67 -4.98 54.34 -6 54 C-5.54625 53.505 -5.0925 53.01 -4.625 52.5 C-0.68674795 46.4411507 -0.72625438 39.52160022 -0.83984375 32.5390625 C-0.84504532 31.66728363 -0.85024689 30.79550476 -0.85560608 29.89730835 C-0.87327813 27.13969486 -0.90446054 24.38246866 -0.9375 21.625 C-0.96512995 18.84614798 -0.98980338 16.06734721 -1.00868225 13.28842163 C-1.02093321 11.56557487 -1.03853089 9.84275615 -1.06199646 8.12002563 C-1.11169644 2.22339288 -1.11169644 2.22339288 0 0 Z " fill="#9BD5CC" transform="translate(310,161)"/>
<path d="M0 0 C6.6 0 13.2 0 20 0 C20 33.66 20 67.32 20 102 C13.4 102 6.8 102 0 102 C0 101.67 0 101.34 0 101 C5.94 100.67 11.88 100.34 18 100 C18 67.33 18 34.66 18 1 C12.39 1 6.78 1 1 1 C1 31.69 1 62.38 1 94 C0.67 94 0.34 94 0 94 C0 62.98 0 31.96 0 0 Z " fill="#62B3A6" transform="translate(347,134)"/>
<path d="M0 0 C-1.93625098 0.98163422 -3.87404539 1.96022454 -5.8125 2.9375 C-7.43091797 3.75541016 -7.43091797 3.75541016 -9.08203125 4.58984375 C-12 6 -12 6 -15 7 C-14.73343428 9.93443402 -14.73343428 9.93443402 -14 13 C-13.01 13.66 -12.02 14.32 -11 15 C-9.8125 17.125 -9.8125 17.125 -9 19 C-7.68 19 -6.36 19 -5 19 C-4.67 18.01 -4.34 17.02 -4 16 C2.97888295 12.30529726 10.23028327 12.28522319 18 13 C21.7968796 14.21267145 23.98185431 15.35965417 26.125 18.8125 C27.13817186 21.34542966 27.15022012 23.29603786 27 26 C23.78699157 27.88592701 21.31793576 28.27976267 17.61328125 28.37890625 C16.59298828 28.41306641 15.57269531 28.44722656 14.52148438 28.48242188 C13.46251953 28.50884766 12.40355469 28.53527344 11.3125 28.5625 C9.20430562 28.6221539 7.09621743 28.68573583 4.98828125 28.75390625 C4.05540283 28.77783447 3.12252441 28.8017627 2.16137695 28.82641602 C0.02059509 28.76332804 0.02059509 28.76332804 -1 30 C-1.969375 30.04125 -2.93875 30.0825 -3.9375 30.125 C-9.51120373 30.78687732 -13.68488339 34.67466869 -18 38 C-18 37.01 -18 36.02 -18 35 C-7.85156333 25.09908617 5.47836196 24.75574727 18.97045898 24.89770508 C20.64710211 24.92469786 22.32358707 24.96126389 24 25 C23.43457996 23.67968405 22.84693528 22.3688699 22.25 21.0625 C21.92515625 20.33160156 21.6003125 19.60070312 21.265625 18.84765625 C20.15527808 16.8529808 20.15527808 16.8529808 18.08984375 16.26171875 C9.65857322 15.20584001 3.1539629 16.80545356 -4.3125 20.75 C-7 22 -7 22 -8.90234375 21.94921875 C-12.14971756 20.47973675 -13.3498312 18.02183697 -15.25 15.0625 C-15.95640625 13.98097656 -16.6628125 12.89945313 -17.390625 11.78515625 C-19 9 -19 9 -19 7 C-6.42857143 -2.14285714 -6.42857143 -2.14285714 0 0 Z " fill="#9BD2CB" transform="translate(400,163)"/>
<path d="M0 0 C1.53482394 4.78602954 1.08922914 9.93535288 1.02734375 14.90234375 C1.01469876 16.86393054 1.0023377 18.82551917 0.99023438 20.78710938 C0.96541959 23.86586316 0.93742391 26.94451999 0.90405273 30.02319336 C0.87378239 33.00374965 0.85605673 35.98418245 0.83984375 38.96484375 C0.82638412 39.88063705 0.8129245 40.79643036 0.79905701 41.73997498 C0.78042702 46.50572553 0.87980974 50.61499112 3 55 C4.485 55.495 4.485 55.495 6 56 C2.25 57.125 2.25 57.125 0 56 C-2.59745718 50.46886367 -2.25581007 44.88596944 -2.1953125 38.9140625 C-2.1924826 37.85714203 -2.18965271 36.80022156 -2.18673706 35.71127319 C-2.1755785 32.34906499 -2.15048159 28.98712714 -2.125 25.625 C-2.11496462 23.33984761 -2.10583975 21.05469102 -2.09765625 18.76953125 C-2.07565327 13.17958398 -2.04115296 7.58983777 -2 2 C-8.27 2 -14.54 2 -21 2 C-20.67 20.48 -20.34 38.96 -20 58 C-19.34 58 -18.68 58 -18 58 C-17.34 59.98 -16.68 61.96 -16 64 C-16.99 64 -17.98 64 -19 64 C-22.54310865 55.93321967 -23.55468579 49.09355754 -23.390625 40.33203125 C-23.38496521 39.17120529 -23.37930542 38.01037933 -23.37347412 36.81437683 C-23.35127982 33.14664539 -23.30111402 29.47993069 -23.25 25.8125 C-23.22991316 23.30925901 -23.21166625 20.80600254 -23.1953125 18.30273438 C-23.15147074 12.20148244 -23.08473019 6.10081389 -23 0 C-19.54210946 -0.19635974 -16.08367803 -0.38058252 -12.625 -0.5625 C-11.64015625 -0.61857422 -10.6553125 -0.67464844 -9.640625 -0.73242188 C-8.69960937 -0.78076172 -7.75859375 -0.82910156 -6.7890625 -0.87890625 C-5.48509521 -0.94960327 -5.48509521 -0.94960327 -4.15478516 -1.02172852 C-2 -1 -2 -1 0 0 Z " fill="#AFE0DB" transform="translate(137,161)"/>
<path d="M0 0 C0.33 0 0.66 0 1 0 C1 33 1 66 1 100 C7.6 100 14.2 100 21 100 C21 88.12 21 76.24 21 64 C21.66 64 22.32 64 23 64 C24.38938077 65.96147874 25.7260411 67.96166576 27 70 C25.68 69.67 24.36 69.34 23 69 C23.0721875 70.24394531 23.144375 71.48789063 23.21875 72.76953125 C24.64768711 98.02846933 24.64768711 98.02846933 22 102 C19.86108398 102.35644531 19.86108398 102.35644531 17.24609375 102.328125 C15.84133789 102.32039063 15.84133789 102.32039063 14.40820312 102.3125 C13.42787109 102.291875 12.44753906 102.27125 11.4375 102.25 C9.96120117 102.24226563 9.96120117 102.24226563 8.45507812 102.234375 C1.15386542 102.15386542 1.15386542 102.15386542 0 101 C-0.09534958 97.86440114 -0.12550879 94.75086387 -0.11352539 91.61499023 C-0.11367142 90.62973358 -0.11381744 89.64447693 -0.1139679 88.62936401 C-0.11326832 85.35575193 -0.10547385 82.08219596 -0.09765625 78.80859375 C-0.09579223 76.54557832 -0.09436825 74.28256249 -0.09336853 72.01954651 C-0.0895421 66.05021052 -0.07971075 60.08089868 -0.06866455 54.11157227 C-0.05845312 48.02555671 -0.05387149 41.93953727 -0.04882812 35.85351562 C-0.03808859 23.90233311 -0.02101068 11.95116856 0 0 Z " fill="#D6EFED" transform="translate(28,162)"/>
<path d="M0 0 C7.26 0 14.52 0 22 0 C23.60213019 1.60213019 23.14884894 3.31358868 23.17358398 5.53222656 C23.18707382 6.49702942 23.20056366 7.46183228 23.21446228 8.45587158 C23.22490067 9.50684021 23.23533905 10.55780884 23.24609375 11.640625 C23.27904059 13.84766009 23.3122521 16.05469124 23.34570312 18.26171875 C23.39308678 21.75534263 23.4374882 25.24895149 23.47680664 28.74267578 C23.51655268 32.10466693 23.56810336 35.46632018 23.62109375 38.828125 C23.6295079 39.8709967 23.63792206 40.91386841 23.64659119 41.98834229 C23.66323318 42.96575378 23.67987518 43.94316528 23.69702148 44.95019531 C23.70732895 45.80655579 23.71763641 46.66291626 23.72825623 47.54522705 C24.03382229 50.30553061 24.86649768 52.47620099 26 55 C23.53051758 54.21557617 23.53051758 54.21557617 21 52 C20.244149 48.19834558 20.42111972 44.41284549 20.51171875 40.55078125 C20.51879349 39.4230278 20.52586823 38.29527435 20.53315735 37.13334656 C20.56118148 33.52572741 20.62393892 29.91965129 20.6875 26.3125 C20.71257231 23.86916301 20.73538733 21.42580174 20.75585938 18.98242188 C20.81103514 12.98768528 20.89736663 6.99410437 21 1 C14.4 1 7.8 1 1 1 C1 18.82 1 36.64 1 55 C0.67 55 0.34 55 0 55 C0 36.85 0 18.7 0 0 Z " fill="#BEE1DE" transform="translate(261,161)"/>
<path d="M0 0 C0.89589844 0.00322266 1.79179687 0.00644531 2.71484375 0.00976562 C4.12056641 0.02233398 4.12056641 0.02233398 5.5546875 0.03515625 C6.49957031 0.03966797 7.44445312 0.04417969 8.41796875 0.04882812 C10.75527137 0.06063268 13.09244811 0.07709866 15.4296875 0.09765625 C15.4296875 2.73765625 15.4296875 5.37765625 15.4296875 8.09765625 C15.0996875 8.09765625 14.7696875 8.09765625 14.4296875 8.09765625 C14.4296875 6.11765625 14.4296875 4.13765625 14.4296875 2.09765625 C11.7002289 2.23909457 8.97120627 2.38565154 6.2421875 2.53515625 C5.47326172 2.57447266 4.70433594 2.61378906 3.91210938 2.65429688 C-0.00282325 2.87272659 -3.74151938 3.18457733 -7.5703125 4.09765625 C-7.6321875 5.35578125 -7.6940625 6.61390625 -7.7578125 7.91015625 C-7.79261719 8.61785156 -7.82742188 9.32554687 -7.86328125 10.0546875 C-7.71453008 12.15994801 -7.71453008 12.15994801 -6.38671875 13.83203125 C-2.66396051 16.42595312 2.10898946 15.66854125 6.4296875 15.09765625 C9.13010639 14.02767895 11.04068471 12.79650268 13.4296875 11.09765625 C12.26860332 14.58090878 11.32875009 15.86504483 8.4296875 18.09765625 C5.08203125 18.5234375 5.08203125 18.5234375 1.3671875 18.41015625 C0.13871094 18.38566406 -1.08976562 18.36117187 -2.35546875 18.3359375 C-5.5703125 18.09765625 -5.5703125 18.09765625 -8.5703125 17.09765625 C-10.7716091 12.3474899 -10.746836 8.21683771 -10.5703125 3.09765625 C-9.2503125 3.09765625 -7.9303125 3.09765625 -6.5703125 3.09765625 C-6.5703125 2.43765625 -6.5703125 1.77765625 -6.5703125 1.09765625 C-4.16971433 -0.10264283 -2.67670601 -0.01694118 0 0 Z " fill="#A7D9D3" transform="translate(409.5703125,202.90234375)"/>
<path d="M0 0 C6.6 0 13.2 0 20 0 C19.67 1.32 19.34 2.64 19 4 C19 3.01 19 2.02 19 1 C13.06 1 7.12 1 1 1 C1.04428663 8.24124588 1.11426377 15.48163098 1.20751953 22.72241211 C1.2356548 25.18295421 1.25690614 27.64358544 1.27099609 30.10424805 C1.29252802 33.65199165 1.33923373 37.19867195 1.390625 40.74609375 C1.39185364 41.8370787 1.39308228 42.92806366 1.39434814 44.05210876 C1.52477363 50.93365177 2.71561607 55.96106241 6 62 C6.4976889 63.08232155 6.4976889 63.08232155 7.00543213 64.18650818 C7.87087989 66.17260026 7.87087989 66.17260026 10 67 C10.33 67.99 10.66 68.98 11 70 C6.27655703 68.14436169 4.17033402 64.72029297 1.3972168 60.64404297 C-0.71978113 55.12275849 -0.36760584 49.80603516 -0.29296875 43.9453125 C-0.28872391 42.68862762 -0.28447906 41.43194275 -0.28010559 40.13717651 C-0.26619122 36.81284265 -0.23928624 33.4891377 -0.20599365 30.16497803 C-0.17518246 26.76629034 -0.16157678 23.36753741 -0.14648438 19.96875 C-0.1134501 13.31230511 -0.06168456 6.65623856 0 0 Z " fill="#61B2A4" transform="translate(262,162)"/>
<path d="M0 0 C7.87602556 2.93516481 13.39844928 7.77074561 16.9140625 15.3828125 C17.65077327 17.33945292 18.17876708 19.27489154 18.640625 21.3125 C19.300625 20.9825 19.960625 20.6525 20.640625 20.3125 C18.890625 25.1875 18.890625 25.1875 16.640625 26.3125 C15.980625 23.0125 15.320625 19.7125 14.640625 16.3125 C13.650625 15.9825 12.660625 15.6525 11.640625 15.3125 C11.24875 14.405 10.856875 13.4975 10.453125 12.5625 C7.32820199 6.95918978 1.59588955 4.35962219 -4.359375 2.3125 C-4.359375 1.6525 -4.359375 0.9925 -4.359375 0.3125 C-12.279375 0.6425 -20.199375 0.9725 -28.359375 1.3125 C-20.32701617 -2.70367942 -8.7024999 -1.78097672 0 0 Z " fill="#9FD4CD" transform="translate(428.359375,160.6875)"/>
<path d="M0 0 C0.99 0.33 1.98 0.66 3 1 C4.91906917 1.08266486 6.84089474 1.10740663 8.76171875 1.09765625 C10.43911133 1.09282227 10.43911133 1.09282227 12.15039062 1.08789062 C13.31763672 1.07951172 14.48488281 1.07113281 15.6875 1.0625 C16.86634766 1.05798828 18.04519531 1.05347656 19.25976562 1.04882812 C22.17322789 1.03703273 25.08658863 1.0205727 28 1 C28 1.33 28 1.66 28 2 C21.07 2 14.14 2 7 2 C7 3.32 7 4.64 7 6 C7.66 6.33 8.32 6.66 9 7 C9 7.99 9 8.98 9 10 C8.34 10 7.68 10 7 10 C6.67 11.98 6.34 13.96 6 16 C4 15 4 15 3.1328125 13.109375 C1.7495519 10.53364837 0.38267846 9.70607136 -2.125 8.25 C-2.84945312 7.82203125 -3.57390625 7.3940625 -4.3203125 6.953125 C-4.87460937 6.63859375 -5.42890625 6.3240625 -6 6 C-4.68 5.34 -3.36 4.68 -2 4 C-1.67 4.99 -1.34 5.98 -1 7 C-0.34 6.67 0.32 6.34 1 6 C1 5.34 1 4.68 1 4 C0.34 3.34 -0.32 2.68 -1 2 C-0.67 1.34 -0.34 0.68 0 0 Z M5 2 C6 4 6 4 6 4 Z " fill="#757474" transform="translate(517,160)"/>
<path d="M0 0 C0.556875 0.226875 1.11375 0.45375 1.6875 0.6875 C-3.36550428 6.22950469 -9.32773144 8.27213466 -16.72265625 9.04296875 C-24.64573197 9.22722632 -31.75463287 8.01299758 -39.3125 5.6875 C-38.6525 5.0275 -37.9925 4.3675 -37.3125 3.6875 C-32.44428683 4.06932064 -27.97910023 5.30480364 -23.3125 6.6875 C-21.65003959 7.04121498 -19.98475729 7.38345322 -18.3125 7.6875 C-18.3125 7.0275 -18.3125 6.3675 -18.3125 5.6875 C-14.6825 5.3575 -11.0525 5.0275 -7.3125 4.6875 C-7.3125 4.0275 -7.3125 3.3675 -7.3125 2.6875 C-3.15982824 -0.42700382 -3.15982824 -0.42700382 0 0 Z " fill="#8ACAC1" transform="translate(247.3125,229.3125)"/>
<path d="M0 0 C-1.93625098 0.98163422 -3.87404539 1.96022454 -5.8125 2.9375 C-7.43091797 3.75541016 -7.43091797 3.75541016 -9.08203125 4.58984375 C-12 6 -12 6 -15 7 C-14.73343428 9.93443402 -14.73343428 9.93443402 -14 13 C-13.01 13.66 -12.02 14.32 -11 15 C-9.8125 17.125 -9.8125 17.125 -9 19 C-7.68 19 -6.36 19 -5 19 C-4.67 18.01 -4.34 17.02 -4 16 C-1.69 16 0.62 16 3 16 C-4.51002812 22.06579194 -4.51002812 22.06579194 -8.921875 21.94921875 C-12.1511235 20.47420487 -13.35758246 18.0097651 -15.25 15.0625 C-15.95640625 13.98097656 -16.6628125 12.89945313 -17.390625 11.78515625 C-19 9 -19 9 -19 7 C-6.42857143 -2.14285714 -6.42857143 -2.14285714 0 0 Z " fill="#A8DAD3" transform="translate(400,163)"/>
<path d="M0 0 C1.98 0.66 3.96 1.32 6 2 C5.31238981 5.65564909 3.74550455 8.51867272 1.9375 11.75 C1.38964844 12.73484375 0.84179688 13.7196875 0.27734375 14.734375 C-0.14417969 15.48203125 -0.56570312 16.2296875 -1 17 C-4.85350753 17 -6.13200105 16.67228372 -9.4375 15.0625 C-12.62561661 13.57366007 -15.47823271 12.45442159 -19 12 C-19 11.67 -19 11.34 -19 11 C-13.82196838 10.82144719 -9.84932556 10.92171762 -5 13 C-4.34 13.66 -3.68 14.32 -3 15 C-3 14.01 -3 13.02 -3 12 C-2.34 12 -1.68 12 -1 12 C-1 10.35 -1 8.7 -1 7 C-0.01 7 0.98 7 2 7 C2 5.68 2 4.36 2 3 C1.01 3 0.02 3 -1 3 C-0.67 2.01 -0.34 1.02 0 0 Z " fill="#9CD3CC" transform="translate(249,166)"/>
<path d="M0 0 C0.66 0.33 1.32 0.66 2 1 C1.34 1.66 0.68 2.32 0 3 C-3.09228957 12.394795 -3.2107698 20.42529912 -1 30 C-5.48740847 25.65734664 -6.18476703 23.65408365 -6.3125 17.375 C-6.27561002 10.18883248 -5.22605498 5.22605498 0 0 Z " fill="#91CEC5" transform="translate(204,167)"/>
<path d="M0 0 C0.99 0.495 0.99 0.495 2 1 C2 19.48 2 37.96 2 57 C2.66 57 3.32 57 4 57 C4.66 58.98 5.32 60.96 6 63 C5.01 63 4.02 63 3 63 C-0.60564395 56.44995476 -0.38878984 50.42325382 -0.29296875 43.06640625 C-0.28872391 41.83333237 -0.28447906 40.60025848 -0.28010559 39.32981873 C-0.26336737 35.40715326 -0.22572265 31.48500914 -0.1875 27.5625 C-0.17075097 24.89649189 -0.15875969 22.23048868 -0.14648438 19.56445312 C-0.11347962 13.04279209 -0.0633279 6.5214333 0 0 Z " fill="#6EAFA4" transform="translate(115,162)"/>
<path d="M0 0 C3.37268765 2.60616773 4.42515902 5.91479675 5 10 C5.23480409 17.47665665 3.05205859 22.80977027 -1 29 C-2.27351308 26.45297384 -1.80191925 25.5717055 -1.0625 22.875 C-0.86785156 22.15054688 -0.67320312 21.42609375 -0.47265625 20.6796875 C-0.31667969 20.12539062 -0.16070312 19.57109375 0 19 C0.66 19 1.32 19 2 19 C2 15.37 2 11.74 2 8 C1.34 8 0.68 8 0 8 C0 5.36 0 2.72 0 0 Z " fill="#9AD1CA" transform="translate(252,200)"/>
<path d="M0 0 C1.65 0 3.3 0 5 0 C4.67 2.97 4.34 5.94 4 9 C10.27 9.33 16.54 9.66 23 10 C23 10.33 23 10.66 23 11 C16.07 11 9.14 11 2 11 C1.67 9.02 1.34 7.04 1 5 C0.278125 5.804375 -0.44375 6.60875 -1.1875 7.4375 C-4.02515689 10.02292072 -5.27166147 10.68042813 -9 11 C-8.34 10.67 -7.68 10.34 -7 10 C-7 9.34 -7 8.68 -7 8 C-6.34 7.67 -5.68 7.34 -5 7 C-4.67 6.34 -4.34 5.68 -4 5 C-3.34 5.33 -2.68 5.66 -2 6 C-1.34 4.02 -0.68 2.04 0 0 Z " fill="#89CBC2" transform="translate(161,225)"/>
<path d="M0 0 C0.89589844 0.00322266 1.79179687 0.00644531 2.71484375 0.00976562 C4.12056641 0.02233398 4.12056641 0.02233398 5.5546875 0.03515625 C6.49957031 0.03966797 7.44445312 0.04417969 8.41796875 0.04882812 C10.75527137 0.06063268 13.09244811 0.07709866 15.4296875 0.09765625 C15.4296875 2.73765625 15.4296875 5.37765625 15.4296875 8.09765625 C15.0996875 8.09765625 14.7696875 8.09765625 14.4296875 8.09765625 C14.4296875 6.11765625 14.4296875 4.13765625 14.4296875 2.09765625 C11.72055969 2.2122964 9.01289089 2.33902779 6.3046875 2.47265625 C5.16386719 2.5190625 5.16386719 2.5190625 4 2.56640625 C-0.51663408 2.80002525 -4.31183597 3.42419742 -8.5703125 5.09765625 C-8.9003125 7.07765625 -9.2303125 9.05765625 -9.5703125 11.09765625 C-9.9003125 11.09765625 -10.2303125 11.09765625 -10.5703125 11.09765625 C-10.5703125 8.45765625 -10.5703125 5.81765625 -10.5703125 3.09765625 C-9.2503125 3.09765625 -7.9303125 3.09765625 -6.5703125 3.09765625 C-6.5703125 2.43765625 -6.5703125 1.77765625 -6.5703125 1.09765625 C-4.16971433 -0.10264283 -2.67670601 -0.01694118 0 0 Z " fill="#99D6CE" transform="translate(409.5703125,202.90234375)"/>
<path d="M0 0 C0 2.97 0 5.94 0 9 C0.66 9.33 1.32 9.66 2 10 C1.34 10 0.68 10 0 10 C-0.33 10.66 -0.66 11.32 -1 12 C-3.31 11.34 -5.62 10.68 -8 10 C-7.84639954 7.31199188 -7.51244468 5.54172723 -5.6328125 3.5546875 C-1.3875 0 -1.3875 0 0 0 Z " fill="#474648" transform="translate(426,228)"/>
<path d="M0 0 C0.5534764 2.07553648 1 3.84365964 1 6 C3.9719385 4.87548273 6.33440687 3.77706209 9 2 C7.54955729 6.10958767 5.48889248 9.43258745 3 13 C2.67 12.34 2.34 11.68 2 11 C1.01 11.33 0.02 11.66 -1 12 C-1.33 11.01 -1.66 10.02 -2 9 C-2.66 8.67 -3.32 8.34 -4 8 C-2.66666667 5.33333333 -1.33333333 2.66666667 0 0 Z " fill="#828182" transform="translate(454,171)"/>
<path d="M0 0 C7.80089967 2.19400303 13.17935604 8.58977706 17.1875 15.30078125 C18 17 18 17 18 19 C17.01 18.67 16.02 18.34 15 18 C14.9175 17.21625 14.835 16.4325 14.75 15.625 C14.28389075 12.87359896 14.28389075 12.87359896 12.0625 11.8125 C11.381875 11.544375 10.70125 11.27625 10 11 C9.34 10.34 8.68 9.68 8 9 C8 8.34 8 7.68 8 7 C5.525 6.01 5.525 6.01 3 5 C3 4.34 3 3.68 3 3 C2.34 3 1.68 3 1 3 C0.67 2.01 0.34 1.02 0 0 Z " fill="#9ED3CD" transform="translate(85,163)"/>
<path d="M0 0 C0.77923828 0.00451172 1.55847656 0.00902344 2.36132812 0.01367188 C4.26175268 0.02533092 6.16213706 0.04326123 8.0625 0.0625 C8.0625 0.7225 8.0625 1.3825 8.0625 2.0625 C5.7364143 2.44313221 3.40194736 2.77519945 1.0625 3.0625 C0.7325 2.7325 0.4025 2.4025 0.0625 2.0625 C-6.70336191 2.2401893 -13.34386781 3.64403795 -19.9375 5.0625 C-21.60371701 5.39807378 -23.27026828 5.73200451 -24.9375 6.0625 C-17.52933917 0.0262208 -9.17237486 -0.10217727 0 0 Z " fill="#5EB3A6" transform="translate(415.9375,160.9375)"/>
<path d="M0 0 C1.98 0 3.96 0 6 0 C7.56430248 3.12860495 7.35627284 5.55602925 7 9 C5.25 11.5625 5.25 11.5625 2 13 C-2.09498488 12.71777087 -6.00957178 11.94191926 -10 11 C-10 10.67 -10 10.34 -10 10 C-9.40832031 10.02320313 -8.81664062 10.04640625 -8.20703125 10.0703125 C-3.66198041 10.17411464 -0.14059941 10.13708357 4 8 C3.50168276 4.31245243 2.89932357 2.39509338 0 0 Z " fill="#A0D7D0" transform="translate(230,210)"/>
<path d="M0 0 C2.64 0.33 5.28 0.66 8 1 C8.33 1.99 8.66 2.98 9 4 C14.28 4 19.56 4 25 4 C25 3.34 25 2.68 25 2 C26.98 2 28.96 2 31 2 C27.11751857 5.88248143 22.53396486 6.1848316 17.25 6.375 C11.29219995 6.28574457 6.184797 4.97826914 1 2 C0.67 1.34 0.34 0.68 0 0 Z " fill="#C1EAE4" transform="translate(55,232)"/>
<path d="M0 0 C3.28630853 5.2257693 3.16744528 12.12703379 2.50585938 18.11523438 C1.34581849 22.43739444 -2.24847224 24.51568211 -5.8125 26.8125 C-6.534375 27.204375 -7.25625 27.59625 -8 28 C-8.66 27.67 -9.32 27.34 -10 27 C-9.52949219 26.64808594 -9.05898437 26.29617187 -8.57421875 25.93359375 C-4.34526464 22.5801995 -1.01705003 19.49018675 0 14 C0.22597603 9.32126906 0.17524425 4.67967061 0 0 Z " fill="#AFDFD9" transform="translate(83,190)"/>
<path d="M0 0 C1.125 3.75 1.125 3.75 0 6 C-0.22622081 7.70363822 -0.40888473 9.41328701 -0.5625 11.125 C-0.64628906 12.03507813 -0.73007812 12.94515625 -0.81640625 13.8828125 C-0.87699219 14.58148438 -0.93757813 15.28015625 -1 16 C-0.34 16 0.32 16 1 16 C1.33 18.31 1.66 20.62 2 23 C2.66 23 3.32 23 4 23 C4.33 24.65 4.66 26.3 5 28 C0.19151191 23.69766855 -1.76964888 20.60720057 -2.18359375 14.125 C-2.29303283 8.87192394 -2.23432638 4.83217413 0 0 Z " fill="#A7DBD5" transform="translate(380,201)"/>
<path d="M0 0 C0.66 0.33 1.32 0.66 2 1 C2 3.64 2 6.28 2 9 C8.27 9 14.54 9 21 9 C21 9.33 21 9.66 21 10 C14.07 10 7.14 10 0 10 C-0.33 8.02 -0.66 6.04 -1 4 C-1.99 4.495 -1.99 4.495 -3 5 C-3.33 4.01 -3.66 3.02 -4 2 C-2.125 0.9375 -2.125 0.9375 0 0 Z " fill="#7DC3B8" transform="translate(310,226)"/>
<path d="M0 0 C0.99 0.33 1.98 0.66 3 1 C5.32191506 0.99172223 7.62329971 0.8716056 9.94140625 0.7421875 C10.96041016 0.86980469 10.96041016 0.86980469 12 1 C12.66 1.99 13.32 2.98 14 4 C16.89608399 4.36498034 16.89608399 4.36498034 20.125 4.1875 C21.22070312 4.16042969 22.31640625 4.13335937 23.4453125 4.10546875 C24.28835938 4.07066406 25.13140625 4.03585938 26 4 C21.29521823 7.13652118 16.50827238 6.56016329 11 6 C7.47642034 5.0196865 4.17681391 3.8248365 1 2 C0.67 1.34 0.34 0.68 0 0 Z " fill="#ACDCD7" transform="translate(273,232)"/>
<path d="M0 0 C0 0.99 0 1.98 0 3 C-4.45460037 7.15762701 -7.4830858 9.14503102 -13.5625 9.125 C-14.74005859 9.12886719 -14.74005859 9.12886719 -15.94140625 9.1328125 C-18 9 -18 9 -20 8 C-20 7.34 -20 6.68 -20 6 C-18.2675 6.061875 -18.2675 6.061875 -16.5 6.125 C-10.93578443 6.10526874 -5.87947351 5.59755249 -1.5 1.875 C-1.005 1.25625 -0.51 0.6375 0 0 Z " fill="#7BC2B8" transform="translate(81,212)"/>
<path d="M0 0 C0.66 1.32 1.32 2.64 2 4 C2.55429687 3.69964844 3.10859375 3.39929688 3.6796875 3.08984375 C4.40414062 2.70957031 5.12859375 2.32929688 5.875 1.9375 C6.59429687 1.55464844 7.31359375 1.17179688 8.0546875 0.77734375 C8.69664063 0.52082031 9.33859375 0.26429688 10 0 C10.66 0.33 11.32 0.66 12 1 C10.68 1.33 9.36 1.66 8 2 C7.9175 2.598125 7.835 3.19625 7.75 3.8125 C6.77590452 6.65361183 5.59505753 7.54982079 3 9 C2.01 8.67 1.02 8.34 0 8 C0 5.36 0 2.72 0 0 Z " fill="#9AD3CB" transform="translate(50,162)"/>
<path d="M0 0 C3.61035208 0.28316487 6.84635488 0.95361657 10.3125 2 C14.85779247 3.23262169 19.31631482 3.64189127 24 4 C24 4.33 24 4.66 24 5 C14.80987806 5.36706108 6.80646119 4.70968037 -2 2 C-1.34 1.34 -0.68 0.68 0 0 Z " fill="#A9DCD6" transform="translate(210,233)"/>
<path d="M0 0 C0.96099609 0.25136719 0.96099609 0.25136719 1.94140625 0.5078125 C7.74183902 1.87363721 11.42879771 2.18003568 17 0 C17 0.99 17 1.98 17 3 C12.13948404 5.59227518 7.34728867 5.18689553 2 5 C1.34 3.35 0.68 1.7 0 0 Z " fill="#8ECDC5" transform="translate(287,216)"/>
<path d="M0 0 C3.09028246 0.91873262 4.67425763 1.54940307 6.58984375 4.19921875 C8.11652453 7.23143516 8.72988197 9.77778879 9.25 13.125 C9.42015625 14.15882813 9.5903125 15.19265625 9.765625 16.2578125 C10 19 10 19 9 22 C8.67 22 8.34 22 8 22 C7.67 17.38 7.34 12.76 7 8 C6.01 7.67 5.02 7.34 4 7 C2.41034429 4.78298853 1.27672514 2.42137527 0 0 Z " fill="#5FB4A7" transform="translate(77,182)"/>
<path d="M0 0 C0.99 0.33 1.98 0.66 3 1 C4.08301035 3.29598193 5.07796291 5.63477442 6 8 C7.2886999 11.17855578 7.2886999 11.17855578 10 13 C10.33 13.99 10.66 14.98 11 16 C6.03332668 14.04880691 3.78834341 10.40775608 1.25 5.875 C0 3 0 3 0 0 Z " fill="#97D2CA" transform="translate(262,216)"/>
<path d="M0 0 C7.92 0 15.84 0 24 0 C24.33 0.99 24.66 1.98 25 3 C23.6875 5.1875 23.6875 5.1875 22 7 C21.34 7 20.68 7 20 7 C19.67 5.35 19.34 3.7 19 2 C12.73 1.67 6.46 1.34 0 1 C0 0.67 0 0.34 0 0 Z " fill="#808080" transform="translate(571,161)"/>
<path d="M0 0 C5.39164698 0.75232283 9.4599638 1.9733092 14 5 C16.50896686 5.45601261 16.50896686 5.45601261 19.1875 5.625 C20.08855469 5.69976562 20.98960937 5.77453125 21.91796875 5.8515625 C22.60503906 5.90054688 23.29210937 5.94953125 24 6 C24 6.33 24 6.66 24 7 C16.22896141 7.53185815 9.88822076 6.84249628 3 3 C1.21875 1.36328125 1.21875 1.36328125 0 0 Z " fill="#AFDFD9" transform="translate(124,231)"/>
<path d="M0 0 C0.33 0 0.66 0 1 0 C1 1.65 1 3.3 1 5 C0.01 5.495 0.01 5.495 -1 6 C-1.33 6.99 -1.66 7.98 -2 9 C-1.360625 9.268125 -0.72125 9.53625 -0.0625 9.8125 C2 11 2 11 3 14 C0.0280615 12.87548273 -2.33440687 11.77706209 -5 10 C-4.49809325 5.60831597 -2.96518146 3.24316722 0 0 Z " fill="#A5D6CE" transform="translate(198,217)"/>
<path d="M0 0 C1.98 0.66 3.96 1.32 6 2 C5.125 6.75 5.125 6.75 4 9 C3.01 8.67 2.02 8.34 1 8 C1 6.68 1 5.36 1 4 C-0.32 4.33 -1.64 4.66 -3 5 C-3 5.66 -3 6.32 -3 7 C-3.66 6.67 -4.32 6.34 -5 6 C-4.67 5.01 -4.34 4.02 -4 3 C-3.01 3 -2.02 3 -1 3 C-0.67 2.01 -0.34 1.02 0 0 Z " fill="#B1AFB0" transform="translate(522,221)"/>
<path d="M0 0 C0.33 0 0.66 0 1 0 C1.05404449 2.75026417 1.09369306 5.49946203 1.125 8.25 C1.15013672 9.41595703 1.15013672 9.41595703 1.17578125 10.60546875 C1.23662606 17.72431144 1.23662606 17.72431144 -1 21 C-1.66 21 -2.32 21 -3 21 C-3.33 21.99 -3.66 22.98 -4 24 C-4.99 23.67 -5.98 23.34 -7 23 C-5.625 21 -5.625 21 -4 19 C-3.34 19 -2.68 19 -2 19 C-1.0672582 14.900639 -0.71174738 10.87956712 -0.4375 6.6875 C-0.35371094 5.43324219 -0.26992188 4.17898437 -0.18359375 2.88671875 C-0.12300781 1.93410156 -0.06242187 0.98148438 0 0 Z " fill="#73BEB3" transform="translate(311,192)"/>
<path d="M0 0 C0.83595703 0.00902344 1.67191406 0.01804688 2.53320312 0.02734375 C4.58475969 0.05079011 6.63616777 0.08665734 8.6875 0.125 C8.6875 0.455 8.6875 0.785 8.6875 1.125 C7.63949219 1.17398438 6.59148437 1.22296875 5.51171875 1.2734375 C4.13278646 1.34848143 2.7538815 1.42402857 1.375 1.5 C0.33956055 1.54640625 0.33956055 1.54640625 -0.71679688 1.59375 C-4.38240789 1.80624919 -6.19150792 2.04433861 -9.3125 4.125 C-11.35546875 4.3203125 -11.35546875 4.3203125 -13.5 4.25 C-15.3871875 4.188125 -15.3871875 4.188125 -17.3125 4.125 C-11.42146438 0.19764292 -6.9043194 -0.14168296 0 0 Z " fill="#ADDFD8" transform="translate(227.3125,159.875)"/>
<path d="M0 0 C3 0 3 0 4.6875 1.5 C5.120625 1.995 5.55375 2.49 6 3 C5.67 3.99 5.34 4.98 5 6 C4.67 5.34 4.34 4.68 4 4 C0.01391188 5.29278533 -1.62111287 6.60158981 -4 10 C-4.66 10 -5.32 10 -6 10 C-5.67 8.68 -5.34 7.36 -5 6 C-4.34 6 -3.68 6 -3 6 C-2.690625 5.38125 -2.38125 4.7625 -2.0625 4.125 C-1.375 2.75 -0.6875 1.375 0 0 Z " fill="#ABABAB" transform="translate(556,215)"/>
<path d="M0 0 C0.99 0.33 1.98 0.66 3 1 C2.34 1.66 1.68 2.32 1 3 C7.93 3 14.86 3 22 3 C22 3.66 22 4.32 22 5 C13.75 5 5.5 5 -3 5 C-2.01 3.35 -1.02 1.7 0 0 Z " fill="#E9E9E9" transform="translate(522,231)"/>
<path d="M0 0 C2.7484005 2.7484005 3.9145484 4.77519368 4.1875 8.6875 C4 11 4 11 3 12 C0.64686445 12.07271741 -1.70833668 12.08370868 -4.0625 12.0625 C-5.35285156 12.05347656 -6.64320313 12.04445312 -7.97265625 12.03515625 C-8.97167969 12.02355469 -9.97070312 12.01195312 -11 12 C-11 11.67 -11 11.34 -11 11 C-6.71 11 -2.42 11 2 11 C1.67 9.9275 1.34 8.855 1 7.75 C0 4 0 4 0 0 Z " fill="#71BCB1" transform="translate(423,178)"/>
<path d="M0 0 C-0.99 1.485 -0.99 1.485 -2 3 C-4.6015625 3.51171875 -4.6015625 3.51171875 -7.625 3.6875 C-9.12933594 3.78611328 -9.12933594 3.78611328 -10.6640625 3.88671875 C-11.82035156 3.94279297 -11.82035156 3.94279297 -13 4 C-13 3.01 -13 2.02 -13 1 C-3.38461538 -1.69230769 -3.38461538 -1.69230769 0 0 Z " fill="#8ACBC3" transform="translate(156,218)"/>
<path d="M0 0 C2.31 0 4.62 0 7 0 C3.86835277 2.52940738 0.72191958 4.44920018 -3 6 C-5.375 5.6875 -5.375 5.6875 -7 5 C-7 4.01 -7 3.02 -7 2 C-6.34 2.33 -5.68 2.66 -5 3 C-3.68 3 -2.36 3 -1 3 C-0.67 2.01 -0.34 1.02 0 0 Z " fill="#B0DCD6" transform="translate(396,179)"/>
<path d="M0 0 C6.03280791 1.6166348 9.950809 3.16709462 14 8 C8.70139194 6.7023817 4.65474354 4.84984298 0 2 C0 1.34 0 0.68 0 0 Z " fill="#99D2CB" transform="translate(238,192)"/>
<path d="M0 0 C4.17371608 4.17371608 4.125 11.45873419 4.125 17.125 C4.08375 18.40375 4.0425 19.6825 4 21 C3.67 21 3.34 21 3 21 C2.855625 19.865625 2.71125 18.73125 2.5625 17.5625 C2.38828522 14.19222799 2.38828522 14.19222799 1 13 C0.76518307 10.81707226 0.58636677 8.62796826 0.4375 6.4375 C0.35371094 5.23996094 0.26992187 4.04242188 0.18359375 2.80859375 C0.12300781 1.88175781 0.06242187 0.95492187 0 0 Z " fill="#BFE4DE" transform="translate(103,182)"/>
<path d="M0 0 C0.99 0.33 1.98 0.66 3 1 C2.34 1 1.68 1 1 1 C0.76539063 1.60328125 0.53078125 2.2065625 0.2890625 2.828125 C-1.3153573 5.53132927 -2.85058687 6.32315896 -5.625 7.75 C-6.44226563 8.17796875 -7.25953125 8.6059375 -8.1015625 9.046875 C-8.72804688 9.36140625 -9.35453125 9.6759375 -10 10 C-7.79393214 5.14055098 -4.38135867 2.92090578 0 0 Z " fill="#A1D5CF" transform="translate(391,191)"/>
<path d="M0 0 C1.20628008 2.33214148 2.1654738 4.49642139 3 7 C0.36 7.99 -2.28 8.98 -5 10 C-3.84414715 6.08788267 -2.64465038 3.1254959 0 0 Z " fill="#7A7879" transform="translate(476,134)"/>
<path d="M0 0 C1.32 0 2.64 0 4 0 C4.103125 0.94875 4.20625 1.8975 4.3125 2.875 C4.68539295 6.29107501 4.68539295 6.29107501 8 8 C8 8.99 8 9.98 8 11 C7.34 11 6.68 11 6 11 C4.4921875 9.1015625 4.4921875 9.1015625 2.875 6.625 C2.33617187 5.81289062 1.79734375 5.00078125 1.2421875 4.1640625 C0 2 0 2 0 0 Z " fill="#9DD0C8" transform="translate(381,170)"/>
<path d="M0 0 C1.93822596 0.03305502 3.87585668 0.10249905 5.8125 0.1875 C6.89144531 0.22230469 7.97039062 0.25710937 9.08203125 0.29296875 C12 1 12 1 13.88671875 3.55078125 C14.25410156 4.35902344 14.62148437 5.16726562 15 6 C4.44191344 2.92482916 4.44191344 2.92482916 0 1 C0 0.67 0 0.34 0 0 Z " fill="#A0D7CF" transform="translate(215,204)"/>
<path d="M0 0 C-1.1446875 1.051875 -1.1446875 1.051875 -2.3125 2.125 C-4.96590478 4.96352604 -6.44000743 7.46949051 -8 11 C-8.33 11 -8.66 11 -9 11 C-9 9.02 -9 7.04 -9 5 C-8.34 4.67 -7.68 4.34 -7 4 C-6.34786708 1.97536745 -6.34786708 1.97536745 -6 0 C-2.25 -1.125 -2.25 -1.125 0 0 Z " fill="#AADDD7" transform="translate(60,181)"/>
<path d="M0 0 C9.59453303 1.74259681 9.59453303 1.74259681 13 5 C7.36529617 5.5497272 4.61012242 3.95047835 0 1 C0 0.67 0 0.34 0 0 Z " fill="#96D1CA" transform="translate(236,161)"/>
<path d="M0 0 C0 0.66 0 1.32 0 2 C2.64 2 5.28 2 8 2 C8 2.33 8 2.66 8 3 C5.70858714 3.05384521 3.41681812 3.09272087 1.125 3.125 C-0.78925781 3.15980469 -0.78925781 3.15980469 -2.7421875 3.1953125 C-6 3 -6 3 -8 1 C-2.25 0 -2.25 0 0 0 Z " fill="#73BBB1" transform="translate(144,234)"/>
<path d="M0 0 C2 3 2 3 2 5 C2.66 5 3.32 5 4 5 C4.66 6.98 5.32 8.96 6 11 C5.01 11 4.02 11 3 11 C0 4.5 0 4.5 0 0 Z " fill="#A1D7D2" transform="translate(115,214)"/>
<path d="M0 0 C0.33 0 0.66 0 1 0 C1 2.64 1 5.28 1 8 C0.34 7.01 -0.32 6.02 -1 5 C-2.98 5.66 -4.96 6.32 -7 7 C-4.66666667 4.66666667 -2.33333333 2.33333333 0 0 Z " fill="#3A5554" transform="translate(425,228)"/>
<path d="M0 0 C0.556875 0.33 1.11375 0.66 1.6875 1 C4.30284522 2.1309601 6.1806646 2.15662974 9 2 C9 2.66 9 3.32 9 4 C8.34 4 7.68 4 7 4 C7 4.66 7 5.32 7 6 C5.35 5.67 3.7 5.34 2 5 C2 4.01 2 3.02 2 2 C1.34 2 0.68 2 0 2 C0 1.34 0 0.68 0 0 Z " fill="#9E9C9E" transform="translate(506,182)"/>
<path d="M0 0 C4.19469571 0.59924224 8.00999834 1.57499941 12 3 C12 3.33 12 3.66 12 4 C5.375 4.125 5.375 4.125 2 3 C2 2.34 2 1.68 2 1 C1.34 0.67 0.68 0.34 0 0 Z " fill="#A2D7D0" transform="translate(225,188)"/>
<path d="M0 0 C3 3.75 3 3.75 3 6 C3.99 6.33 4.98 6.66 6 7 C2.25 8.125 2.25 8.125 0 7 C0 4.69 0 2.38 0 0 Z " fill="#9AD5CC" transform="translate(137,210)"/>
<path d="M0 0 C0.33 0.66 0.66 1.32 1 2 C2.32 2.33 3.64 2.66 5 3 C0.545 4.485 0.545 4.485 -4 6 C-3.34 4.68 -2.68 3.36 -2 2 C-1.34 2 -0.68 2 0 2 C0 1.34 0 0.68 0 0 Z " fill="#858484" transform="translate(474,161)"/>
<path d="M0 0 C0.66 0.33 1.32 0.66 2 1 C-2.625 6.875 -2.625 6.875 -6 8 C-4.55746343 4.63408134 -2.66735273 2.48952921 0 0 Z " fill="#989898" transform="translate(490,116)"/>
<path d="M0 0 C2.64 0.33 5.28 0.66 8 1 C8.33 1.99 8.66 2.98 9 4 C3.46153846 3.38461538 3.46153846 3.38461538 1.125 1.4375 C0.75375 0.963125 0.3825 0.48875 0 0 Z " fill="#9BD0CA" transform="translate(55,232)"/>
<path d="M0 0 C2.3125 0.1875 2.3125 0.1875 5 1 C6.8125 3.5625 6.8125 3.5625 8 6 C5.0280615 4.87548273 2.66559313 3.77706209 0 2 C0 1.34 0 0.68 0 0 Z " fill="#A7D9D2" transform="translate(385,229)"/>
<path d="M0 0 C2.5 2.3125 2.5 2.3125 5 5 C5 5.99 5 6.98 5 8 C3.02 6.68 1.04 5.36 -1 4 C-0.67 2.68 -0.34 1.36 0 0 Z " fill="#898687" transform="translate(535,184)"/>
<path d="M0 0 C0.66 0.33 1.32 0.66 2 1 C-0.25 3.5625 -0.25 3.5625 -3 6 C-4.32 5.67 -5.64 5.34 -7 5 C-4.69 3.35 -2.38 1.7 0 0 Z " fill="#999898" transform="translate(501,108)"/>
<path d="M0 0 C1.98 0 3.96 0 6 0 C3.82575883 2.50037734 2.26954202 3.43628586 -1 4 C-1.33 3.34 -1.66 2.68 -2 2 C-1.34 2 -0.68 2 0 2 C0 1.34 0 0.68 0 0 Z " fill="#96CEC9" transform="translate(300,232)"/>
<path d="M0 0 C1.65 0 3.3 0 5 0 C4.1875 1.9375 4.1875 1.9375 3 4 C2.01 4.33 1.02 4.66 0 5 C0 3.35 0 1.7 0 0 Z " fill="#93D1C9" transform="translate(92,225)"/>
<path d="M0 0 C0.33 0.99 0.66 1.98 1 3 C-0.9375 6.1875 -0.9375 6.1875 -3 9 C-4 7 -4 7 -3.1875 3.9375 C-2 1 -2 1 0 0 Z " fill="#A3D9D0" transform="translate(254,220)"/>
<path d="M0 0 C0.33 0.99 0.66 1.98 1 3 C-0.65 4.65 -2.3 6.3 -4 8 C-4 6.35 -4 4.7 -4 3 C-3.01 2.67 -2.02 2.34 -1 2 C-0.67 1.34 -0.34 0.68 0 0 Z " fill="#A9DBD4" transform="translate(101,217)"/>
<path d="M0 0 C3.465 1.98 3.465 1.98 7 4 C7 4.33 7 4.66 7 5 C5.02 5 3.04 5 1 5 C0.67 3.35 0.34 1.7 0 0 Z " fill="#A6D8D2" transform="translate(218,183)"/>
<path d="M0 0 C2.4375 0.625 2.4375 0.625 5 2 C5.8125 5.125 5.8125 5.125 6 8 C3.33264727 5.51047079 1.44253657 3.36591866 0 0 Z " fill="#ADDDD7" transform="translate(77,182)"/>
<path d="M0 0 C1.98 0 3.96 0 6 0 C5.34 1.65 4.68 3.3 4 5 C3.01 5 2.02 5 1 5 C0.67 3.35 0.34 1.7 0 0 Z " fill="#A1A0A0" transform="translate(590,163)"/>
<path d="M0 0 C0 1.98 0 3.96 0 6 C-1.32 6 -2.64 6 -4 6 C-3.625 3.5625 -3.625 3.5625 -3 1 C-1 0 -1 0 0 0 Z " fill="#818080" transform="translate(481,128)"/>
<path d="" fill="#FFFFFF" transform="translate(0,0)"/>
<path d="M0 0 C2 1 2 1 2 1 Z " fill="#FFFFFF" transform="translate(511,183)"/>
<path d="" fill="#FFFFFF" transform="translate(0,0)"/>
<path d="" fill="#FFFFFF" transform="translate(0,0)"/>
<path d="" fill="#FFFFFF" transform="translate(0,0)"/>
<path d="" fill="#FFFFFF" transform="translate(0,0)"/>
<path d="" fill="#FFFFFF" transform="translate(0,0)"/>
<path d="" fill="#FFFFFF" transform="translate(0,0)"/>
<path d="" fill="#FFFFFF" transform="translate(0,0)"/>
<path d="" fill="#FFFFFF" transform="translate(0,0)"/>
<path d="" fill="#FFFFFF" transform="translate(0,0)"/>
<path d="" fill="#FFFFFF" transform="translate(0,0)"/>
<path d="" fill="#FFFFFF" transform="translate(0,0)"/>
<path d="" fill="#FFFFFF" transform="translate(0,0)"/>
<path d="" fill="#FFFFFF" transform="translate(0,0)"/>
<path d="" fill="#FFFFFF" transform="translate(0,0)"/>
<path d="" fill="#FFFFFF" transform="translate(0,0)"/>
<path d="" fill="#FFFFFF" transform="translate(0,0)"/>
<path d="" fill="#FFFFFF" transform="translate(0,0)"/>
<path d="" fill="#FFFFFF" transform="translate(0,0)"/>
<path d="" fill="#FFFFFF" transform="translate(0,0)"/>
<path d="" fill="#FFFFFF" transform="translate(0,0)"/>
<path d="" fill="#FFFFFF" transform="translate(0,0)"/>
<path d="" fill="#FFFFFF" transform="translate(0,0)"/>
<path d="" fill="#FFFFFF" transform="translate(0,0)"/>
<path d="" fill="#FFFFFF" transform="translate(0,0)"/>
</svg>
