<?xml version="1.0" encoding="UTF-8"?>
<svg version="1.1" xmlns="http://www.w3.org/2000/svg" width="1600" height="838">
<path d="M0 0 C528 0 1056 0 1600 0 C1600 276.54 1600 553.08 1600 838 C1072 838 544 838 0 838 C0 561.46 0 284.92 0 0 Z " fill="#FEFEFE" transform="translate(0,0)"/>
<path d="M0 0 C2.60369661 -0.00571248 5.20739071 -0.01268011 7.81108093 -0.02079773 C14.10874433 -0.03786614 20.40630744 -0.03885146 26.70398793 -0.03358483 C31.82553352 -0.02952207 36.94704976 -0.03101145 42.06859398 -0.03633308 C42.80107207 -0.03708151 43.53355015 -0.03782993 44.28822454 -0.03860103 C45.7767717 -0.04013268 47.26531884 -0.04167103 48.75386598 -0.043216 C62.66433911 -0.05689583 76.57475575 -0.05153359 90.48522755 -0.04003078 C103.18928694 -0.03008663 115.89320094 -0.04306748 128.59723792 -0.06696498 C141.67887272 -0.09138551 154.76043986 -0.10095762 167.84209698 -0.09431225 C175.17186195 -0.09082871 182.50151498 -0.09299558 189.83126259 -0.11056328 C196.71875187 -0.12686842 203.60595894 -0.12205813 210.49344063 -0.10325813 C213.01529132 -0.09957785 215.53716269 -0.10266426 218.05899429 -0.11314392 C221.51147462 -0.1263923 224.96303982 -0.11477141 228.41548157 -0.09715271 C229.40392368 -0.10675772 230.3923658 -0.11636272 231.4107607 -0.12625879 C244.2226693 0.00750809 256.06150303 5.20132843 265.8425293 13.40405273 C265.8425293 14.06405273 265.8425293 14.72405273 265.8425293 15.40405273 C266.8325293 15.73405273 267.8225293 16.06405273 268.8425293 16.40405273 C279.88631777 28.88719753 282.77395817 43.27122708 281.8425293 59.40405273 C280.67532793 70.63480733 274.5046081 79.91262527 268.8425293 89.40405273 C268.02147705 90.78318848 268.02147705 90.78318848 267.18383789 92.19018555 C264.10736656 97.34619573 261.01152287 102.49028874 257.90893555 107.63061523 C253.62082534 114.75069314 249.41295665 121.91657743 245.2175293 129.09155273 C244.49741084 130.32259992 243.77727744 131.55363838 243.05712891 132.78466797 C241.99772828 134.59568378 240.93833812 136.40670565 239.87910461 138.21781921 C232.84275504 150.24497973 225.75843485 162.24359232 218.56176758 174.17553711 C214.55558407 180.84245127 210.6436845 187.56485407 206.7175293 194.27905273 C200.54998386 204.82612157 194.31408573 215.32820086 188.01367188 225.79663086 C184.22288519 232.09688289 180.46376121 238.41374511 176.74560547 244.75708008 C172.24406617 252.43461923 167.70596364 260.09050342 163.16064453 267.7421875 C159.62282464 273.69982483 156.10054159 279.66574817 152.6081543 285.65014648 C144.01519962 300.35268855 135.60542322 314.66894544 123.91674805 327.17358398 C122.01772843 329.21565593 120.24415275 331.31856856 118.4675293 333.46655273 C93.57812932 361.88717194 52.75251489 377.79406293 15.8425293 380.40405273 C12.21334476 380.53287722 8.58889209 380.54781336 4.95765686 380.54449463 C3.40042559 380.54895131 3.40042559 380.54895131 1.81173509 380.55349803 C-1.63626051 380.5621085 -5.08422109 380.56368671 -8.53222656 380.56518555 C-11.01681084 380.56981896 -13.50139441 380.57484432 -15.98597717 380.58023071 C-22.71319101 380.59330188 -29.44039133 380.59982621 -36.1676147 380.60424137 C-40.37444034 380.60701446 -44.58126373 380.61125351 -48.78808784 380.61574554 C-60.45593464 380.62792499 -72.12377964 380.63822922 -83.79163265 380.64162064 C-84.53650084 380.6418402 -85.28136902 380.64205977 -86.04880897 380.64228599 C-86.79535114 380.64250427 -87.54189332 380.64272254 -88.31105798 380.64294744 C-89.82358293 380.64339089 -91.33610787 380.64383745 -92.84863281 380.64428711 C-93.59888072 380.64450854 -94.34912863 380.64472997 -95.12211133 380.64495811 C-107.28333567 380.64890766 -119.44450016 380.6663724 -131.60570138 380.68964663 C-144.11760724 380.71339732 -156.62948308 380.72582405 -169.14141184 380.72698855 C-176.156029 380.72790284 -183.17056797 380.73359351 -190.1851635 380.75180817 C-196.78195436 380.76887911 -203.37862339 380.77043418 -209.97543907 380.76166916 C-212.39086047 380.76090004 -214.80628991 380.76522491 -217.22169113 380.77512741 C-237.6293543 380.85386303 -253.39646341 379.46062382 -268.93481445 364.75952148 C-278.54363375 354.57653724 -283.58308268 341.71486937 -283.3449707 327.77905273 C-283.34400391 326.69237305 -283.34400391 326.69237305 -283.34301758 325.58374023 C-283.30910356 321.42362057 -282.96518212 317.50076506 -282.1574707 313.40405273 C-283.01018555 313.81977539 -283.01018555 313.81977539 -283.88012695 314.24389648 C-284.65227539 314.60612305 -285.42442383 314.96834961 -286.2199707 315.34155273 C-286.97407227 315.70120117 -287.72817383 316.06084961 -288.50512695 316.43139648 C-302.4826983 321.55719216 -322.7260177 320.21929006 -336.30297852 314.27709961 C-346.71735284 309.374282 -355.20927505 303.78995569 -362.1574707 294.40405273 C-362.72981445 293.64737305 -363.3021582 292.89069336 -363.8918457 292.11108398 C-372.34801479 279.61521036 -373.68463025 263.7486665 -371.7199707 249.15405273 C-369.35638496 237.80884116 -363.57781421 228.17720669 -354.1574707 221.40405273 C-353.55418945 220.95674805 -352.9509082 220.50944336 -352.3293457 220.04858398 C-333.66700092 207.30643681 -311.77167198 207.99254015 -290.2199707 208.21655273 C-287.68677554 208.23162838 -285.1535717 208.24531168 -282.62036133 208.25756836 C-276.46587226 208.29034151 -270.31171293 208.3403119 -264.1574707 208.40405273 C-264.44646638 206.49679452 -264.74363433 204.59077355 -265.04418945 202.68530273 C-265.20878662 201.62375977 -265.37338379 200.5622168 -265.54296875 199.46850586 C-266.60859047 194.15436848 -268.56844554 190.13753473 -272.2199707 186.15405273 C-284.14565498 179.04938976 -296.94226936 178.78249943 -310.1574707 181.96655273 C-320.2166809 184.62545672 -330.26172809 188.68877102 -338.9699707 194.40405273 C-340.0218457 195.06405273 -341.0737207 195.72405273 -342.1574707 196.40405273 C-345.85785435 195.17059152 -346.4117705 193.96994139 -348.5559082 190.77514648 C-349.20043945 189.82188477 -349.8449707 188.86862305 -350.5090332 187.88647461 C-351.17676758 186.88165039 -351.84450195 185.87682617 -352.5324707 184.84155273 C-353.5224707 183.37492187 -353.5224707 183.37492187 -354.5324707 181.87866211 C-358.18235709 176.45109202 -361.7273935 170.97296186 -365.1574707 165.40405273 C-352.82302034 155.916014 -339.06364794 149.6651268 -324.1574707 145.40405273 C-322.92125977 145.01088867 -321.68504883 144.61772461 -320.41137695 144.21264648 C-310.09356607 141.22337417 -299.69763078 140.97898903 -289.0324707 140.90405273 C-287.96094254 140.8883876 -287.96094254 140.8883876 -286.86776733 140.87240601 C-266.08758451 140.6354377 -246.68396067 146.31292771 -230.9855957 160.34545898 C-223.03728998 168.76855288 -219.53873781 179.31083281 -217.1574707 190.40405273 C-216.50624515 193.07480921 -215.83228497 195.73910827 -215.1574707 198.40405273 C-214.7449707 197.68451416 -214.3324707 196.96497559 -213.9074707 196.22363281 C-210.60520928 190.46817077 -207.29743207 184.71591031 -203.9777832 178.97045898 C-203.34630371 177.87677002 -202.71482422 176.78308105 -202.06420898 175.65625 C-199.51321768 171.305193 -196.87943281 167.01064301 -194.20825195 162.73217773 C-187.6413221 152.07498871 -181.38741007 141.22060349 -175.06762695 130.41577148 C-166.3659983 115.5403546 -157.60930082 100.70293035 -148.69506836 85.95336914 C-147.37699285 83.76801753 -146.06774681 81.57780526 -144.76293945 79.38452148 C-137.46199593 67.24508285 -128.89715839 56.62417345 -119.1574707 46.40405273 C-118.49102539 45.68475586 -117.82458008 44.96545898 -117.13793945 44.22436523 C-100.32541772 26.59776351 -78.05355398 14.97265044 -55.2824707 7.15405273 C-54.33887695 6.82453613 -53.3952832 6.49501953 -52.4230957 6.15551758 C-35.01551752 0.39132121 -18.15620533 -0.03619235 0 0 Z " fill="#484647" transform="translate(1250.157470703125,231.595947265625)"/>
<path d="M0 0 C1.04027344 0.43570312 2.08054688 0.87140625 3.15234375 1.3203125 C18.86374451 8.57172823 32.66893083 21.88730579 41 37 C41.44730469 37.77472656 41.89460937 38.54945313 42.35546875 39.34765625 C45.10374098 44.41293338 47.00415271 49.65168659 48.75 55.125 C48.96092285 55.78201904 49.1718457 56.43903809 49.38916016 57.1159668 C56.55017175 80.62864023 52.63357274 108.16540168 42 130 C33.39219227 145.38054436 20.71441315 158.31831861 5 166.3125 C4.35973877 166.63831055 3.71947754 166.96412109 3.05981445 167.29980469 C-6.15230568 171.76811886 -14.5796789 173.51788229 -24.8125 173.375 C-25.87057861 173.36412354 -26.92865723 173.35324707 -28.01879883 173.34204102 C-48.2457016 172.93007197 -61.94830126 165.05169874 -76 151 C-76.33 178.06 -76.66 205.12 -77 233 C-93.17 233 -109.34 233 -126 233 C-126 155.45 -126 77.9 -126 -2 C-109.83 -2 -93.66 -2 -77 -2 C-76.505 6.91 -76.505 6.91 -76 16 C-74.824375 14.845 -73.64875 13.69 -72.4375 12.5 C-66.27351425 7.04240508 -59.43016918 3.42809084 -52 0 C-51.01773438 -0.45890625 -50.03546875 -0.9178125 -49.0234375 -1.390625 C-34.30588734 -7.0237574 -14.40930822 -6.04927933 0 0 Z " fill="#4FB9AB" transform="translate(193,377)"/>
<path d="M0 0 C1.07152817 -0.01566513 1.07152817 -0.01566513 2.16470337 -0.03164673 C22.94488619 -0.26861503 42.34851004 5.40887498 58.046875 19.44140625 C65.94258655 27.80876429 69.64339612 38.42362463 71.875 49.5 C72.03845098 50.18763617 72.20190197 50.87527233 72.37030602 51.58374596 C73.86799157 58.22627023 74.11735528 64.49336654 74.01025391 71.28369141 C73.99606163 72.98300308 73.99606163 72.98300308 73.98158264 74.71664429 C73.94814105 78.4284564 73.89996164 82.13991789 73.8515625 85.8515625 C73.82537103 88.43800972 73.800106 91.02446647 73.77572632 93.6109314 C73.7160872 99.70225301 73.64716674 105.79340356 73.57365549 111.88457143 C73.49041583 118.82533808 73.41917544 125.76621216 73.34888959 132.70712018 C73.20417706 146.97157698 73.04298599 161.23579874 72.875 175.5 C58.025 175.5 43.175 175.5 27.875 175.5 C27.545 169.23 27.215 162.96 26.875 156.5 C25.616875 157.840625 24.35875 159.18125 23.0625 160.5625 C9.29347824 174.30990634 -4.93481641 177.84781731 -23.79077148 177.88061523 C-39.96833735 177.63748136 -54.73927908 171.94445951 -66.8515625 161.046875 C-69.12521021 158.62874801 -71.15090512 156.16668699 -73.125 153.5 C-73.69734375 152.74332031 -74.2696875 151.98664063 -74.859375 151.20703125 C-83.31554409 138.71115762 -84.65215955 122.84461376 -82.6875 108.25 C-80.32391426 96.90478843 -74.5453435 87.27315395 -65.125 80.5 C-64.52171875 80.05269531 -63.9184375 79.60539062 -63.296875 79.14453125 C-44.63453021 66.40238407 -22.73920127 67.08848742 -1.1875 67.3125 C1.34569516 67.32757565 3.87889901 67.34125895 6.41210938 67.35351562 C12.56659844 67.38628877 18.72075777 67.43625917 24.875 67.5 C24.58600432 65.59274178 24.28883637 63.68672082 23.98828125 61.78125 C23.82368408 60.71970703 23.65908691 59.65816406 23.48950195 58.56445312 C22.42388024 53.25031575 20.46402516 49.233482 16.8125 45.25 C4.88681572 38.14533702 -7.90979866 37.8784467 -21.125 41.0625 C-31.1842102 43.72140399 -41.22925739 47.78471829 -49.9375 53.5 C-50.989375 54.16 -52.04125 54.82 -53.125 55.5 C-56.82538364 54.26653879 -57.3792998 53.06588866 -59.5234375 49.87109375 C-60.16796875 48.91783203 -60.8125 47.96457031 -61.4765625 46.98242188 C-62.14429688 45.97759766 -62.81203125 44.97277344 -63.5 43.9375 C-64.49 42.47086914 -64.49 42.47086914 -65.5 40.97460938 C-69.14988638 35.54703928 -72.6949228 30.06890912 -76.125 24.5 C-63.79054964 15.01196126 -50.03117724 8.76107406 -35.125 4.5 C-33.88878906 4.10683594 -32.65257812 3.71367187 -31.37890625 3.30859375 C-21.06109536 0.31932144 -10.66516007 0.0749363 0 0 Z " fill="#50B8AA" transform="translate(961.125,372.5)"/>
<path d="M0 0 C6.81761894 -0.0252689 13.63522589 -0.04283244 20.45288086 -0.05493164 C22.77417451 -0.05997333 25.09546497 -0.06680651 27.41674805 -0.07543945 C30.74528795 -0.08751225 34.07378602 -0.09322979 37.40234375 -0.09765625 C38.44712387 -0.10281754 39.49190399 -0.10797882 40.56834412 -0.11329651 C41.52926468 -0.11337204 42.49018524 -0.11344757 43.48022461 -0.11352539 C44.75596596 -0.11685631 44.75596596 -0.11685631 46.05747986 -0.12025452 C48 0 48 0 49 1 C49.09701605 3.2149186 49.12186691 5.43299797 49.12025452 7.65003967 C49.12153615 8.70487782 49.12153615 8.70487782 49.12284368 9.78102583 C49.12450053 12.15490516 49.1189738 14.52871498 49.11352539 16.90258789 C49.11324354 18.59729511 49.11340122 20.29200245 49.1139679 21.98670959 C49.11425594 26.60221626 49.10835809 31.21769717 49.10139394 35.83319783 C49.09516156 40.65120264 49.09455669 45.46920797 49.09336853 50.28721619 C49.09025487 59.41742498 49.08204102 68.54762186 49.07201904 77.67782539 C49.06085898 88.06942676 49.05534772 98.46102868 49.05032361 108.85263455 C49.03985843 130.23509783 49.02151252 151.61754478 49 173 C32.83 173 16.66 173 0 173 C-0.495 162.605 -0.495 162.605 -1 152 C-1.969375 153.155 -2.93875 154.31 -3.9375 155.5 C-13.19577043 165.93860769 -23.99762338 174.22284229 -38.48852539 175.16113281 C-60.05258512 175.50819169 -78.85166346 172.71394167 -95.03710938 157.28149414 C-112.42027416 139.67771548 -113.46068712 117.21512116 -113.31719017 93.9313221 C-113.3091971 92.68683737 -113.30120403 91.44235264 -113.29296875 90.16015625 C-113.2873636 87.58084868 -113.28309785 85.00153788 -113.28010559 82.42222595 C-113.26988705 76.36650741 -113.24633122 70.31098036 -113.21605712 64.25533336 C-113.18230192 57.3506665 -113.16597453 50.44599088 -113.15097082 43.54126179 C-113.11977392 29.3607379 -113.06484791 15.18040901 -113 1 C-97.16 1 -81.32 1 -65 1 C-64.96261719 8.04472656 -64.92523437 15.08945312 -64.88671875 22.34765625 C-64.85640809 26.83661202 -64.82523991 31.32552963 -64.79101562 35.81445312 C-64.73689029 42.92421436 -64.68577321 50.03390011 -64.65356445 57.14379883 C-64.62736876 62.88221835 -64.58685354 68.62038131 -64.53681374 74.35864067 C-64.5202543 76.53721336 -64.50867258 78.71583031 -64.50238609 80.89445686 C-65.10908784 104.74322956 -65.10908784 104.74322956 -55.46875 125.703125 C-48.87835696 131.87412939 -42.07730188 133.62831845 -33.1484375 133.3359375 C-22.60351506 132.21079689 -14.88806849 128.07610232 -8 120 C-2.19659584 111.16517061 -0.7053414 102.0865062 -0.68115234 91.72851562 C-0.67110672 90.73248322 -0.6610611 89.73645081 -0.65071106 88.7102356 C-0.62000273 85.44224587 -0.60287827 82.17433761 -0.5859375 78.90625 C-0.56721593 76.63081162 -0.54764178 74.3553801 -0.5272522 72.07995605 C-0.47602964 66.10913146 -0.43635104 60.13828438 -0.39910889 54.1673584 C-0.35900729 48.06724531 -0.30794305 41.96722496 -0.2578125 35.8671875 C-0.16117014 23.91152357 -0.07672799 11.95580716 0 0 Z " fill="#4FB8AA" transform="translate(720,375)"/>
<path d="M0 0 C15.84 0 31.68 0 48 0 C48.02578125 7.2496875 48.0515625 14.499375 48.078125 21.96875 C48.10332199 26.58987801 48.12967698 31.21094241 48.16015625 35.83203125 C48.208316 43.15022943 48.25242631 50.46828019 48.27099609 57.78662109 C48.28625491 63.693674 48.32086259 69.60033849 48.36830902 75.50721741 C48.38302823 77.74915674 48.39103551 79.99115155 48.39188385 82.23313904 C48.11517175 104.79427444 48.11517175 104.79427444 57 125 C62.86666542 130.73333212 68.36448596 133.13246096 76.5 133.3125 C85.96501352 132.99960699 94.17363165 130.48162775 101.2421875 123.91796875 C110.69559707 113.75468776 112.2860672 102.11087998 112.31884766 88.66333008 C112.32889328 87.6961203 112.3389389 86.72891052 112.34928894 85.73239136 C112.37984855 82.57810997 112.39707954 79.42391235 112.4140625 76.26953125 C112.4327961 74.0656412 112.45237111 71.86175816 112.4727478 69.65788269 C112.52384345 63.88931428 112.56358936 58.12072268 112.60089111 52.35205078 C112.64815188 45.41345227 112.70965214 38.47496683 112.76873779 31.53646088 C112.85667456 21.02435346 112.92663617 10.51226468 113 0 C128.84 0 144.68 0 161 0 C161 57.09 161 114.18 161 173 C145.16 173 129.32 173 113 173 C112.505 162.605 112.505 162.605 112 152 C110.411875 153.835625 108.82375 155.67125 107.1875 157.5625 C97.42620074 168.3764741 85.97736173 174.6118172 71.328125 175.37890625 C51.55307299 175.9624068 35.26617839 172.1327923 20 159 C18.98099609 158.17628906 18.98099609 158.17628906 17.94140625 157.3359375 C13.39990824 153.31675603 10.50865042 148.82907873 7.75 143.5 C7.43281006 142.9026001 7.11562012 142.3052002 6.78881836 141.68969727 C-1.05391671 125.58603033 -0.53671405 108.88413328 -0.390625 91.40625 C-0.38315067 88.76109485 -0.37726621 86.11598328 -0.37347412 83.4708252 C-0.36114095 77.26280082 -0.32845344 71.05506499 -0.28807616 64.84716654 C-0.24305369 57.76837388 -0.22129559 50.68956597 -0.20129442 43.61066532 C-0.15970955 29.07360812 -0.08648142 14.53686159 0 0 Z " fill="#4FB9AB" transform="translate(267,375)"/>
<path d="M0 0 C7.16889226 -0.53782201 14.33333939 -0.94376718 21.51844883 -1.19167995 C24.86080556 -1.31095092 28.178834 -1.48390301 31.51538086 -1.73510742 C52.95950441 -3.30791783 52.95950441 -3.30791783 59.63653564 2.1585083 C64.28603884 7.5568589 67.49726266 13.58171051 70.52224731 19.99783325 C72.89379372 24.81580979 75.83127754 29.25082638 78.75 33.75 C79.70684822 35.28414242 80.66065118 36.82019516 81.609375 38.359375 C83.18257792 40.90628047 84.8187009 42.94487872 87 45 C87.34144043 44.47269287 87.68288086 43.94538574 88.03466797 43.40209961 C104.82358933 17.48754176 104.82358933 17.48754176 108.75349426 11.89239502 C110.0833658 9.94138425 110.0833658 9.94138425 111.31230164 7.49969482 C115.32075406 0.5296202 115.32075406 0.5296202 119.7901001 -0.87997437 C123.21227866 -1.15773458 126.50332625 -1.12549041 129.93359375 -0.9765625 C131.78320457 -0.95533829 131.78320457 -0.95533829 133.67018127 -0.9336853 C137.59512741 -0.87785879 141.51429032 -0.75243158 145.4375 -0.625 C148.10343212 -0.5691715 150.7693099 -0.52920207 153.43554688 -0.48828125 C159.95899271 -0.37823531 166.47908329 -0.21107627 173 0 C171.07737346 3.99360725 168.64965733 7.5558538 166.125 11.1875 C165.6395874 11.8894751 165.1541748 12.5914502 164.65405273 13.31469727 C158.66855079 21.95233133 152.59350831 30.5271922 146.51171875 39.09716797 C140.12050774 48.10430671 133.81921102 57.16477564 127.60302734 66.29370117 C123.51565729 72.28247834 119.32778821 78.18167446 115 84 C116.32770924 86.77878287 117.80359341 89.30646109 119.546875 91.84375 C120.05468506 92.58488037 120.56249512 93.32601074 121.08569336 94.08959961 C121.63491455 94.88503174 122.18413574 95.68046387 122.75 96.5 C123.32564697 97.33732666 123.90129395 98.17465332 124.49438477 99.03735352 C130.35944773 107.55314909 136.29139469 116.02202739 142.23388672 124.48388672 C145.16021871 128.65291872 148.07972725 132.8267227 151 137 C152.1523331 138.64584079 153.30467689 140.2916741 154.45703125 141.9375 C156.93543681 145.47788118 159.41163607 149.01979507 161.88671875 152.5625 C162.52287109 153.47257813 163.15902344 154.38265625 163.81445312 155.3203125 C165.03375658 157.06471744 166.25253406 158.80949019 167.47070312 160.5546875 C168.02048828 161.34101562 168.57027344 162.12734375 169.13671875 162.9375 C169.61842529 163.62714844 170.10013184 164.31679688 170.59643555 165.02734375 C171.5879379 166.42086245 172.6198897 167.7860169 173.67895508 169.12890625 C175 171 175 171 175 173 C167.77724538 173.37329522 160.5566127 173.65622181 153.32611465 173.82899475 C149.96537869 173.91203559 146.61627266 174.03286855 143.25830078 174.20703125 C121.66197422 175.29848439 121.66197422 175.29848439 115.66760254 171.53604126 C111.82372907 167.91506689 109.32178577 163.68360851 106.99865723 158.97857666 C105.67157205 156.34930639 104.00475033 154.03945964 102.265625 151.66796875 C101.25695505 150.17681488 100.2516232 148.68339635 99.25 147.1875 C94.62821526 140.35732074 89.92273363 133.61817663 85 127 C80.92240702 130.66690016 78.09604452 135.0413958 75.0625 139.5625 C73.91025077 141.26308488 72.75790404 142.9636037 71.60546875 144.6640625 C71.01427246 145.5396582 70.42307617 146.41525391 69.81396484 147.31738281 C66.84963782 151.70123549 63.86233231 156.06930721 60.875 160.4375 C60.05914429 161.63451538 60.05914429 161.63451538 59.22680664 162.85571289 C58.71625732 163.60328857 58.20570801 164.35086426 57.6796875 165.12109375 C57.01042236 166.10227173 57.01042236 166.10227173 56.32763672 167.10327148 C55.67045654 168.0421521 55.67045654 168.0421521 55 169 C54.59066727 169.68975418 54.18133453 170.37950836 53.75959778 171.09016418 C52 173 52 173 49.51325989 173.48101807 C48.52508774 173.47213562 47.53691559 173.46325317 46.51879883 173.45410156 C45.39786331 173.45379944 44.2769278 173.45349731 43.12202454 173.45318604 C41.91257675 173.43254089 40.70312897 173.41189575 39.45703125 173.390625 C38.21829758 173.38496521 36.9795639 173.37930542 35.70329285 173.37347412 C32.41335722 173.35486224 29.12420519 173.31893668 25.83453369 173.2746582 C22.47637521 173.23370629 19.11810195 173.2154634 15.75976562 173.1953125 C9.17286987 173.15116388 2.58649904 173.08418959 -4 173 C-2.88932256 171.24539404 -1.77743402 169.49155469 -0.66503906 167.73803711 C-0.04598694 166.76128525 0.57306519 165.78453339 1.21087646 164.77818298 C3.45464781 161.29401475 5.82657745 157.92271892 8.25 154.5625 C14.67503349 145.55878349 20.86979207 136.40124098 27.06152344 127.23657227 C33.47336127 117.74909175 39.93709057 108.30070187 46.57421875 98.96875 C47.61271635 97.47968052 48.65049847 95.99011175 49.6875 94.5 C50.23599609 93.74203125 50.78449219 92.9840625 51.34960938 92.203125 C51.85685547 91.46578125 52.36410156 90.7284375 52.88671875 89.96875 C53.34264404 89.32357422 53.79856934 88.67839844 54.26831055 88.01367188 C55.24138348 85.94340781 55.24138348 85.94340781 54.3137207 83.53662109 C53.02840259 81.05484166 51.6585494 78.76052671 50.09375 76.4453125 C49.51367188 75.58164062 48.93359375 74.71796875 48.3359375 73.828125 C47.73007813 72.93609375 47.12421875 72.0440625 46.5 71.125 C45.32280303 69.37768072 44.14572269 67.63028286 42.96875 65.8828125 C42.3387207 64.95065918 41.70869141 64.01850586 41.05957031 63.05810547 C38.78253205 59.67709773 36.52327482 56.28459083 34.265625 52.890625 C28.63912635 44.43800764 22.94606572 36.03082654 17.25 27.625 C14.32785701 23.31171795 11.40636217 18.99801576 8.49023438 14.68066406 C6.98892796 12.45822531 5.48004371 10.24200045 3.96289062 8.03027344 C3.13821289 6.82032715 3.13821289 6.82032715 2.296875 5.5859375 C1.84151367 4.92384277 1.38615234 4.26174805 0.91699219 3.57958984 C0 2 0 2 0 0 Z " fill="#FDFDFD" transform="translate(1207,375)"/>
<path d="M0 0 C1.26972656 0.00684814 2.53945312 0.01369629 3.84765625 0.02075195 C13.05705866 0.17853625 20.90717633 1.14177751 29.5625 4.4375 C30.64660156 4.79972656 31.73070312 5.16195313 32.84765625 5.53515625 C45.35300138 9.93214888 56.66098678 16.61143204 66.5625 25.4375 C67.33335937 26.09234375 68.10421875 26.7471875 68.8984375 27.421875 C70.5625 29.4375 70.5625 29.4375 70.58984375 31.31640625 C69.14339586 34.30279867 67.18932957 36.80059125 65.125 39.375 C64.21715223 40.52841316 63.30960925 41.68206628 62.40234375 42.8359375 C61.93425293 43.42729492 61.46616211 44.01865234 60.98388672 44.62792969 C59.57713981 46.41886202 58.19307013 48.22493092 56.81640625 50.0390625 C56.37546631 50.61922119 55.93452637 51.19937988 55.48022461 51.79711914 C54.24971822 53.41804116 53.01938572 55.03909519 51.7890625 56.66015625 C49.83434839 59.09840491 47.82307728 61.28530656 45.5625 63.4375 C45.10875 62.756875 44.655 62.07625 44.1875 61.375 C35.57056723 51.7322419 21.52679147 44.3682777 8.578125 43.26904297 C-0.14442025 42.793521 -8.28508895 42.99303112 -16.4375 46.4375 C-17.09492187 46.68113281 -17.75234375 46.92476563 -18.4296875 47.17578125 C-27.13074165 50.86237246 -35.3931278 58.46198759 -39.51171875 66.96875 C-44.93719743 81.43669315 -44.8745158 95.80049154 -39.37109375 110.234375 C-34.45508634 120.94250995 -26.13401131 127.27870311 -15.36328125 131.69921875 C-1.84517428 136.3465776 10.37957643 135.30695037 23.25 129.15234375 C31.05810778 124.77248329 38.39053589 118.78800847 43.5625 111.4375 C46.7248716 112.80946165 48.5561218 114.2940122 50.75 116.9375 C53.47092568 120.15366911 56.23403327 123.31510401 59.0625 126.4375 C62.46503203 130.20645856 65.82658117 134.00693643 69.15234375 137.84375 C70.24665145 139.0805299 71.39478131 140.26978131 72.5625 141.4375 C72.05804012 146.88566671 67.44822438 150.07141187 63.5625 153.4375 C50.97593467 163.39214931 38.02954961 171.00648901 22.5625 175.4375 C21.40363281 175.80488281 20.24476562 176.17226563 19.05078125 176.55078125 C12.6664904 178.10257209 6.03096358 177.83245821 -0.5 177.8125 C-1.19513702 177.81162384 -1.89027405 177.81074768 -2.60647583 177.80984497 C-12.75489322 177.76751535 -21.89110254 177.30179023 -31.4375 173.4375 C-32.07606934 173.19612305 -32.71463867 172.95474609 -33.37255859 172.70605469 C-43.38887507 168.90420623 -51.96444541 163.99839227 -60.4375 157.4375 C-61.24703125 156.81230469 -62.0565625 156.18710937 -62.890625 155.54296875 C-76.40349863 144.3216139 -85.51810639 128.49514263 -89.4375 111.4375 C-89.64117188 110.59960938 -89.84484375 109.76171875 -90.0546875 108.8984375 C-94.66583081 86.47438441 -91.08136114 61.59275781 -79.3125 41.875 C-64.94322571 20.56883467 -43.33526967 6.25220942 -18.21923828 1.05493164 C-12.13709633 0.06192086 -6.15189195 -0.05134792 0 0 Z " fill="#FDFDFD" transform="translate(1141.4375,372.5625)"/>
<path d="M0 0 C1.20342041 -0.00644531 2.40684082 -0.01289063 3.64672852 -0.01953125 C21.04274088 0.22859126 37.96761017 5.74695929 53.125 14.125 C53.8053833 14.49705566 54.4857666 14.86911133 55.18676758 15.25244141 C61.14309299 18.69251543 61.14309299 18.69251543 62.1875 22.5 C61.06933594 25.38500977 61.06933594 25.38500977 59.171875 28.69140625 C58.84084778 29.27792465 58.50982056 29.86444305 58.16876221 30.46873474 C57.10650486 32.34224382 56.02239547 34.20202684 54.9375 36.0625 C54.22121071 37.3188384 53.5063494 38.5759921 52.79296875 39.83398438 C47.87838375 48.46367437 47.87838375 48.46367437 45.1875 52.5 C41.48749314 51.1160827 38.02121228 49.43463153 34.51513672 47.63110352 C19.88112986 40.10430586 3.57803247 35.02044045 -12.984375 39.32421875 C-16.15934994 40.71975512 -18.35717757 42.04467757 -20.8125 44.5 C-21.20733391 46.53426205 -21.20733391 46.53426205 -21.1875 48.8125 C-21.23003906 49.95138672 -21.23003906 49.95138672 -21.2734375 51.11328125 C-20.62277925 54.48236762 -19.19720103 56.05956305 -16.8125 58.5 C-8.88998464 63.25579566 0.15272608 65.94733692 8.90136719 68.76220703 C52.89561596 82.96026553 52.89561596 82.96026553 61.625 99.4375 C68.11792696 113.82625781 67.55797834 128.79547901 62.1875 143.5 C54.99803932 159.16021139 42.68397534 168.37904308 26.78125 174.4921875 C17.40804376 177.12076056 8.13977779 177.86258658 -1.5625 177.8125 C-2.69993652 177.80758545 -3.83737305 177.8026709 -5.00927734 177.79760742 C-13.97037964 177.67344834 -22.14365199 176.80179262 -30.8125 174.5 C-31.78074707 174.25056641 -31.78074707 174.25056641 -32.76855469 173.99609375 C-46.50010389 170.38428831 -58.76715967 164.22594233 -70.75 156.6875 C-71.3476416 156.31463867 -71.9452832 155.94177734 -72.56103516 155.55761719 C-76.68963162 152.86860514 -76.68963162 152.86860514 -77.8125 149.5 C-76.73608398 147.45043945 -76.73608398 147.45043945 -75.05859375 145.11328125 C-74.45080078 144.25669922 -73.84300781 143.40011719 -73.21679688 142.51757812 C-72.56775391 141.62490234 -71.91871094 140.73222656 -71.25 139.8125 C-70.62802734 138.93916016 -70.00605469 138.06582031 -69.36523438 137.16601562 C-65.59151272 131.88595994 -61.73126426 126.67313293 -57.8125 121.5 C-53.60572815 122.39393902 -50.40772576 124.47995512 -46.8125 126.75 C-34.55865666 134.27549048 -21.30997067 139.7113376 -6.8125 140.5 C-5.79027344 140.56445312 -4.76804687 140.62890625 -3.71484375 140.6953125 C3.527632 140.94943446 9.91668479 140.42228596 16.1875 136.5 C19.15708857 133.28515524 19.53346725 130.996412 19.5859375 126.59765625 C18.78672054 122.39001402 16.80958378 119.95488554 13.38793945 117.45288086 C5.28429795 112.86304815 -2.69879739 109.49777236 -11.57537842 106.71011353 C-31.72879756 100.34229084 -53.10096413 92.67727907 -64.0625 73.2890625 C-66.93483184 66.9659431 -67.19365311 60.77285726 -67.25 53.9375 C-67.26015137 53.06327393 -67.27030273 52.18904785 -67.28076172 51.28833008 C-67.11104993 38.53723814 -62.27435537 28.68260078 -53.78125 19.2421875 C-38.57333271 4.77196769 -20.43306443 0.10392556 0 0 Z " fill="#51B9AB" transform="translate(526.8125,372.5)"/>
<path d="M0 0 C15.84 0 31.68 0 48 0 C48 78.54 48 157.08 48 238 C32.16 238 16.32 238 0 238 C0 159.46 0 80.92 0 0 Z " fill="#50B8AA" transform="translate(803,310)"/>
<path d="M0 0 C12.02188898 7.62222495 19.5422507 18.06390064 22.8125 31.875 C25.74015891 47.34976853 23.8140846 61.72702554 15 75 C8.54880594 83.91100186 -0.01608666 90.18930039 -11 92 C-23.11646341 93.05986343 -32.56161827 91.44702986 -42.125 83.75390625 C-51.19974486 75.26523866 -57.69846566 63.53966256 -58.30078125 50.9921875 C-58.32026706 49.61992445 -58.3237304 48.24735544 -58.3125 46.875 C-58.30686035 46.14071777 -58.3012207 45.40643555 -58.29541016 44.64990234 C-57.96721187 29.61452122 -53.55158353 17.06160653 -43.2109375 6.0078125 C-31.0807045 -5.00798213 -14.68604725 -7.6948532 0 0 Z " fill="#FCFEFE" transform="translate(173,417)"/>
<path d="M0 0 C1.35232224 0.00424484 1.35232224 0.00424484 2.73196411 0.00857544 C5.59488526 0.01971811 8.45748684 0.0448117 11.3203125 0.0703125 C13.26822463 0.08034995 15.21614169 0.08947446 17.1640625 0.09765625 C21.9246012 0.11963807 26.68490277 0.154127 31.4453125 0.1953125 C31.47918425 2.59907783 31.50391862 5.00236059 31.5234375 7.40625 C31.53914795 8.42126587 31.53914795 8.42126587 31.55517578 9.45678711 C31.59547463 16.07788717 30.30518587 20.19090168 26.8203125 25.8203125 C18.77586728 33.86475772 9.55640459 37.2659031 -1.7421875 37.5078125 C-9.39087159 37.28023199 -15.40282284 36.08884121 -21.5546875 31.1953125 C-26.38367947 25.71375405 -26.91437005 22.38977328 -26.828125 15.1796875 C-26.45596022 11.11777477 -25.39719669 9.11070654 -22.5546875 6.1953125 C-15.53020344 1.0927817 -8.50544102 -0.10140011 0 0 Z " fill="#FBFEFD" transform="translate(953.5546875,473.8046875)"/>
<path d="M0 0 C16.17 0 32.34 0 49 0 C49 6.27 49 12.54 49 19 C48.67 19 48.34 19 48 19 C48 13.72 48 8.44 48 3 C32.82 2.67 17.64 2.34 2 2 C2 78.56 2 155.12 2 234 C16.85 234 31.7 234 47 234 C46.90460938 228.25980469 46.80921875 222.51960937 46.7109375 216.60546875 C46.65512744 212.97331665 46.5999174 209.34117537 46.546875 205.70898438 C46.46258844 199.9412126 46.37605769 194.17353464 46.27636719 188.40600586 C46.19615178 183.75717194 46.12583079 179.10828483 46.06242752 174.45919228 C46.03646318 172.68369323 46.00690719 170.90824302 45.97373581 169.132864 C45.92795452 166.65005074 45.89483789 164.16737214 45.86474609 161.68432617 C45.8482048 160.94705292 45.83166351 160.20977966 45.81462097 159.45016479 C45.78343727 155.72200833 45.87260453 154.19109321 48 151 C48.66 151.33 49.32 151.66 50 152 C49.67 179.39 49.34 206.78 49 235 C32.83 235 16.66 235 0 235 C0 157.45 0 79.9 0 0 Z " fill="#80C5BC" transform="translate(67,375)"/>
<path d="M0 0 C15.84 0 31.68 0 48 0 C49 1 49 1 49.12304783 3.80923557 C49.12212604 5.07670093 49.12120424 6.34416628 49.12025452 7.65003967 C49.12110894 8.3532651 49.12196337 9.05649053 49.12284368 9.78102583 C49.12450053 12.15490516 49.1189738 14.52871498 49.11352539 16.90258789 C49.11324354 18.59729511 49.11340122 20.29200245 49.1139679 21.98670959 C49.11425594 26.60221626 49.10835809 31.21769717 49.10139394 35.83319783 C49.09516156 40.65120264 49.09455669 45.46920797 49.09336853 50.28721619 C49.09025487 59.41742498 49.08204102 68.54762186 49.07201904 77.67782539 C49.06085898 88.06942676 49.05534772 98.46102868 49.05032361 108.85263455 C49.03985843 130.23509783 49.02151252 151.61754478 49 173 C32.83 173 16.66 173 0 173 C0 172.67 0 172.34 0 172 C15.51 172 31.02 172 47 172 C47 115.9 47 59.8 47 2 C31.82 2 16.64 2 1 2 C1 35.99 1 69.98 1 105 C0.01 105.495 0.01 105.495 -1 106 C-0.67 71.02 -0.34 36.04 0 0 Z " fill="#7CC2B8" transform="translate(720,375)"/>
<path d="M0 0 C15.84 0 31.68 0 48 0 C48 57.09 48 114.18 48 173 C32.16 173 16.32 173 0 173 C0 166.07 0 159.14 0 152 C0.33 152 0.66 152 1 152 C1 158.6 1 165.2 1 172 C16.18 172 31.36 172 47 172 C47 115.9 47 59.8 47 2 C31.82 2 16.64 2 1 2 C1 36.98 1 71.96 1 108 C-0.485 108.495 -0.485 108.495 -2 109 C-1.93019456 108.39672945 -1.86038912 107.7934589 -1.78846836 107.17190742 C-1.119416 101.0236351 -0.83466392 94.95855168 -0.79467773 88.77685547 C-0.78477814 87.80979172 -0.77487854 86.84272797 -0.76467896 85.84635925 C-0.7333833 82.68665925 -0.70843441 79.52694427 -0.68359375 76.3671875 C-0.66299656 74.16187169 -0.64199941 71.95655959 -0.62062073 69.75125122 C-0.56568545 63.97443661 -0.51615144 58.19758808 -0.46777344 52.42071533 C-0.40846781 45.47466357 -0.34239839 38.52867319 -0.27747345 31.58267212 C-0.17982361 21.05515255 -0.09072182 10.52759182 0 0 Z " fill="#65B5A8" transform="translate(380,375)"/>
<path d="M0 0 C15.84 0 31.68 0 48 0 C48.06058594 7.31929688 48.12117188 14.63859375 48.18359375 22.1796875 C48.22410854 26.82813059 48.26489223 31.47656823 48.30664062 36.125 C48.37281899 43.49639983 48.43802428 50.86779894 48.49731445 58.23925781 C48.54520004 64.1850387 48.59754999 70.13076533 48.65294075 76.07648087 C48.67325518 78.34014655 48.69198548 80.60382704 48.70907402 82.86751938 C48.73336136 86.04828974 48.76338023 89.22895989 48.79467773 92.40966797 C48.80331093 93.80042793 48.80331093 93.80042793 48.81211853 95.21928406 C48.87855526 101.1945916 49.30834177 107.06478051 50 113 C45.6094775 108.6094775 46.83056958 100.73543049 46.79467773 94.86376953 C46.78477814 93.8582756 46.77487854 92.85278168 46.76467896 91.81681824 C46.73318445 88.50550664 46.70835425 85.19418072 46.68359375 81.8828125 C46.66301382 79.58209874 46.64201707 77.28138868 46.62062073 74.98068237 C46.56550743 68.93419389 46.51605085 62.8876719 46.46777344 56.84112549 C46.40863257 49.5814651 46.34246382 42.32186578 46.27747345 35.06225586 C46.17959914 24.0415413 46.09065051 13.02078701 46 2 C31.15 2 16.3 2 1 2 C1.33 41.93 1.66 81.86 2 123 C0.10052499 119.20104998 -0.24895585 118.00507337 -0.24050903 114.00128174 C-0.24463303 112.49110725 -0.24463303 112.49110725 -0.24884033 110.95042419 C-0.24164978 109.85206741 -0.23445923 108.75371063 -0.22705078 107.62207031 C-0.22734283 106.46081131 -0.22763489 105.29955231 -0.22793579 104.10310364 C-0.22654148 100.26136832 -0.2109752 96.41982648 -0.1953125 92.578125 C-0.19158273 89.91582918 -0.18863722 87.2535441 -0.18673706 84.59124756 C-0.18052279 78.29792999 -0.1641127 72.00468198 -0.14403808 65.71139503 C-0.12167743 58.54578939 -0.11068524 51.38018043 -0.10064721 44.21454859 C-0.07974641 29.4763253 -0.04307083 14.73817668 0 0 Z " fill="#6BB6AC" transform="translate(267,375)"/>
<path d="M0 0 C15.84 0 31.68 0 48 0 C48 0.33 48 0.66 48 1 C32.49 1.33 16.98 1.66 1 2 C1 36.98 1 71.96 1 108 C-0.485 108.495 -0.485 108.495 -2 109 C-1.93019456 108.39672945 -1.86038912 107.7934589 -1.78846836 107.17190742 C-1.119416 101.0236351 -0.83466392 94.95855168 -0.79467773 88.77685547 C-0.78477814 87.80979172 -0.77487854 86.84272797 -0.76467896 85.84635925 C-0.7333833 82.68665925 -0.70843441 79.52694427 -0.68359375 76.3671875 C-0.66299656 74.16187169 -0.64199941 71.95655959 -0.62062073 69.75125122 C-0.56568545 63.97443661 -0.51615144 58.19758808 -0.46777344 52.42071533 C-0.40846781 45.47466357 -0.34239839 38.52867319 -0.27747345 31.58267212 C-0.17982361 21.05515255 -0.09072182 10.52759182 0 0 Z " fill="#77BEB2" transform="translate(380,375)"/>
<path d="M0 0 C0.66 0.99 1.32 1.98 2 3 C5.58357241 3.25015873 5.58357241 3.25015873 9 3 C7.3518456 8.03382098 4.39351949 12.0260491 1.375 16.3125 C0.859375 17.05306641 0.34375 17.79363281 -0.1875 18.55664062 C-1.45394726 20.37422697 -2.72485759 22.18850838 -4 24 C-4.99 23.34 -5.98 22.68 -7 22 C-6.34 22 -5.68 22 -5 22 C-4.87625 20.88625 -4.7525 19.7725 -4.625 18.625 C-4 15 -4 15 -2 13 C-2.33 12.34 -2.66 11.68 -3 11 C-5.52733235 10.34444881 -5.52733235 10.34444881 -8 10 C-7.59007812 9.52949219 -7.18015625 9.05898438 -6.7578125 8.57421875 C-6.21898437 7.95160156 -5.68015625 7.32898438 -5.125 6.6875 C-4.59132813 6.07261719 -4.05765625 5.45773437 -3.5078125 4.82421875 C-1.8359553 2.86501788 -1.8359553 2.86501788 0 0 Z " fill="#4E4C4D" transform="translate(1214,515)"/>
<path d="M0 0 C0.48984375 0.2165625 0.9796875 0.433125 1.484375 0.65625 C10.6831873 4.08201458 20.34176064 3.27414217 30 3 C29.67 3.66 29.34 4.32 29 5 C20.4345425 7.37593079 9.40216036 6.81577776 1 4 C0.34 3.01 -0.32 2.02 -1 1 C-0.67 0.67 -0.34 0.34 0 0 Z " fill="#6ABAAE" transform="translate(137,505)"/>
<path d="M0 0 C-1.30324219 0.48919922 -1.30324219 0.48919922 -2.6328125 0.98828125 C-3.78523437 1.42527344 -4.93765625 1.86226563 -6.125 2.3125 C-7.26195312 2.74175781 -8.39890625 3.17101562 -9.5703125 3.61328125 C-12.81341047 4.92455663 -15.89166668 6.39927485 -19 8 C-23.59223301 10.13592233 -23.59223301 10.13592233 -27 9 C-5.98006645 -1.91362126 -5.98006645 -1.91362126 0 0 Z " fill="#6ABAAD" transform="translate(926,379)"/>
<path d="M0 0 C0 6.6 0 13.2 0 20 C-0.33 20 -0.66 20 -1 20 C-1.33 15.71 -1.66 11.42 -2 7 C-4.76223278 7 -5.89281454 8.31425163 -8 10 C-8.66 9.67 -9.32 9.34 -10 9 C-8.52386015 7.49702124 -7.04400843 5.99768715 -5.5625 4.5 C-4.73878906 3.6646875 -3.91507813 2.829375 -3.06640625 1.96875 C-1 0 -1 0 0 0 Z " fill="#3A605C" transform="translate(989,528)"/>
<path d="M0 0 C0 0.33 0 0.66 0 1 C-2.05078125 1.22786458 -4.1015625 1.45572917 -6.15234375 1.68359375 C-8.01140229 1.81886614 -8.01140229 1.81886614 -9 3 C-10.34015221 3.15582303 -11.68758903 3.25044142 -13.03515625 3.31640625 C-13.84404297 3.35830078 -14.65292969 3.40019531 -15.48632812 3.44335938 C-16.7615332 3.50233398 -16.7615332 3.50233398 -18.0625 3.5625 C-19.34350586 3.62727539 -19.34350586 3.62727539 -20.65039062 3.69335938 C-22.76672037 3.79976702 -24.88333813 3.90041731 -27 4 C-18.6031379 -0.35565078 -9.27202205 -0.29126771 0 0 Z " fill="#6CBBAE" transform="translate(944,440)"/>
<path d="M0 0 C1.65 0.33 3.3 0.66 5 1 C5 1.66 5 2.32 5 3 C5.66 3 6.32 3 7 3 C7 2.01 7 1.02 7 0 C7.66 0 8.32 0 9 0 C8.34 1.98 7.68 3.96 7 6 C2.72290301 6 1.44069624 5.29379749 -2 3 C-1.34 2.01 -0.68 1.02 0 0 Z " fill="#65B9AC" transform="translate(566,418)"/>
<path d="M0 0 C0.66 0 1.32 0 2 0 C2.16435547 0.90492188 2.16435547 0.90492188 2.33203125 1.828125 C3.50797128 7.93684987 3.50797128 7.93684987 7 13 C1.25 11.25 1.25 11.25 -1 9 C-0.9765625 6.8359375 -0.9765625 6.8359375 -0.625 4.375 C-0.51414062 3.55773437 -0.40328125 2.74046875 -0.2890625 1.8984375 C-0.19367188 1.27195312 -0.09828125 0.64546875 0 0 Z " fill="#6ABBAE" transform="translate(503,419)"/>
<path d="M0 0 C-2 4 -2 4 -3.1875 5.875 C-4.34854396 8.91157652 -3.8560671 10.90498816 -3 14 C-1.56308045 15.85801239 -1.56308045 15.85801239 0 17 C-0.33 17.66 -0.66 18.32 -1 19 C-4.52128712 15.56674506 -6.3718733 13.38931107 -6.5625 8.375 C-6.3813524 5.11983254 -6.11274502 4.15408486 -4.125 1.4375 C-2 0 -2 0 0 0 Z " fill="#E5FCFB" transform="translate(511,413)"/>
<path d="M0 0 C4.99450259 0.6853655 9.5967594 2.02015651 14.375 3.5625 C15.11105469 3.79646484 15.84710938 4.03042969 16.60546875 4.27148438 C18.40481238 4.8440028 20.20257277 5.42149314 22 6 C22 6.33 22 6.66 22 7 C15.56025419 6.37679879 9.32427599 5.35991738 3 4 C2.67 3.01 2.34 2.02 2 1 C1.34 0.67 0.68 0.34 0 0 Z " fill="#69B7AC" transform="translate(489,506)"/>
<path d="M0 0 C0.33 0.66 0.66 1.32 1 2 C-2.30461186 8.15859483 -7.20674601 11.26313006 -13 15 C-13.66 14.67 -14.32 14.34 -15 14 C-14.33613281 13.49210938 -13.67226563 12.98421875 -12.98828125 12.4609375 C-8.07221335 8.62855756 -3.74458463 4.99277951 0 0 Z " fill="#E5FCFA" transform="translate(583,525)"/>
<path d="M0 0 C0.99 0.66 1.98 1.32 3 2 C1.90653119 3.34212062 0.7998425 4.67347975 -0.3125 6 C-1.23482422 7.11375 -1.23482422 7.11375 -2.17578125 8.25 C-4 10 -4 10 -7 10 C-5.6062718 5.56541027 -3.39417765 3.12621626 0 0 Z " fill="#65BAAD" transform="translate(475,390)"/>
<path d="M0 0 C0.33 0 0.66 0 1 0 C1 7.26 1 14.52 1 22 C0.67 22 0.34 22 0 22 C-0.33 16.39 -0.66 10.78 -1 5 C-2.98 5.99 -2.98 5.99 -5 7 C-1.125 1.125 -1.125 1.125 0 0 Z " fill="#D8FAF8" transform="translate(379,526)"/>
<path d="M0 0 C0 0.66 0 1.32 0 2 C-0.99 2 -1.98 2 -3 2 C-3 2.66 -3 3.32 -3 4 C-3.99 4.33 -4.98 4.66 -6 5 C-6.78375 5.825 -7.5675 6.65 -8.375 7.5 C-11.0971156 10.09249105 -12.33929183 10.68622501 -16 11 C-12.20918993 6.84233734 -5.90642573 0 0 0 Z " fill="#68BBAE" transform="translate(906,448)"/>
<path d="M0 0 C2.00720923 0.28674418 4.0085944 0.61866701 6 1 C2.60102327 3.26598448 1.43680827 3.23742654 -2.54296875 3.1953125 C-4.15268555 3.18564453 -4.15268555 3.18564453 -5.79492188 3.17578125 C-7.47424805 3.15064453 -7.47424805 3.15064453 -9.1875 3.125 C-10.31865234 3.11597656 -11.44980469 3.10695313 -12.61523438 3.09765625 C-15.41036828 3.07406862 -18.20507845 3.041153 -21 3 C-21 2.67 -21 2.34 -21 2 C-20.39937744 1.97494385 -19.79875488 1.9498877 -19.17993164 1.92407227 C-16.47388563 1.8084472 -13.76821717 1.68557064 -11.0625 1.5625 C-10.11697266 1.52318359 -9.17144531 1.48386719 -8.19726562 1.44335938 C-7.29814453 1.40146484 -6.39902344 1.35957031 -5.47265625 1.31640625 C-4.64000244 1.27974854 -3.80734863 1.24309082 -2.94946289 1.20532227 C-0.99661142 1.20632897 -0.99661142 1.20632897 0 0 Z " fill="#69B8AD" transform="translate(177,547)"/>
<path d="M0 0 C0 3.20395416 -0.74335022 5.09399739 -2 8 C-2.99 7.67 -3.98 7.34 -5 7 C-5.33 7.66 -5.66 8.32 -6 9 C-7.97485205 10.3703055 -9.97386717 11.70672372 -12 13 C-10.44997253 9.11602311 -7.99523379 6.97020381 -4.875 4.25 C-3.96492188 3.45078125 -3.05484375 2.6515625 -2.1171875 1.828125 C-1.06917969 0.92320312 -1.06917969 0.92320312 0 0 Z " fill="#535152" transform="translate(1117,422)"/>
<path d="M0 0 C4.29 0 8.58 0 13 0 C10.25906335 1.8272911 7.86174676 2.93698178 4.8125 4.125 C3.91144531 4.47820312 3.01039063 4.83140625 2.08203125 5.1953125 C1.05142578 5.59363281 1.05142578 5.59363281 0 6 C0 4.02 0 2.04 0 0 Z " fill="#61B8AC" transform="translate(931,474)"/>
<path d="M0 0 C3 1 3 1 5.1875 4.3125 C7.76989703 9.70313106 7.35071157 15.1548072 7 21 C6.67 21 6.34 21 6 21 C5.85304688 19.85724609 5.85304688 19.85724609 5.703125 18.69140625 C4.71553885 11.87195358 3.18285413 6.11849629 0 0 Z " fill="#60B5A8" transform="translate(980,419)"/>
<path d="M0 0 C-2 2.5625 -2 2.5625 -5 5 C-7.89116824 5.14963532 -10.13399816 4.63149193 -13 4 C-10.56272708 2.37515139 -8.62713877 1.34310925 -5.9375 0.3125 C-5.24527344 0.04050781 -4.55304688 -0.23148438 -3.83984375 -0.51171875 C-2 -1 -2 -1 0 0 Z " fill="#575556" transform="translate(1196,240)"/>
<path d="M0 0 C0.33 0 0.66 0 1 0 C1.68829114 8.60363924 1.68829114 8.60363924 -0.875 12.5625 C-1.57625 13.366875 -2.2775 14.17125 -3 15 C-3.66 15 -4.32 15 -5 15 C-3.33333333 10 -1.66666667 5 0 0 Z " fill="#6EBCAF" transform="translate(195,474)"/>
<path d="M0 0 C0.66 0.33 1.32 0.66 2 1 C1.67 1.33 1.34 1.66 1 2 C0.76807135 3.51469448 0.58784762 5.03754562 0.4375 6.5625 C0.35371094 7.38878906 0.26992188 8.21507812 0.18359375 9.06640625 C0.12300781 9.70449219 0.06242188 10.34257812 0 11 C-4 6.375 -4 6.375 -4 3 C-2 1.3125 -2 1.3125 0 0 Z " fill="#68BCAF" transform="translate(890,393)"/>
<path d="M0 0 C0.33 0.99 0.66 1.98 1 3 C3.09719872 4.02281518 3.09719872 4.02281518 5.5625 4.6875 C6.38878906 4.93886719 7.21507812 5.19023438 8.06640625 5.44921875 C9.02353516 5.72185547 9.02353516 5.72185547 10 6 C10 6.99 10 7.98 10 9 C6.50155614 8.36610765 4.15913124 6.94822306 1.25 4.9375 C0.45078125 4.38964844 -0.3484375 3.84179688 -1.171875 3.27734375 C-1.77515625 2.85582031 -2.3784375 2.43429687 -3 2 C-2.01 1.34 -1.02 0.68 0 0 Z " fill="#68BAAD" transform="translate(292,534)"/>
<path d="M0 0 C1.65 0.99 3.3 1.98 5 3 C3.35 4.65 1.7 6.3 0 8 C-0.66 6.02 -1.32 4.04 -2 2 C-1.34 1.34 -0.68 0.68 0 0 Z " fill="#54B3A4" transform="translate(979,529)"/>
<path d="M0 0 C0 3.9478088 -1.33724565 5.18508826 -4 8 C-4.99 8 -5.98 8 -7 8 C-7 8.66 -7 9.32 -7 10 C-8.32 9.67 -9.64 9.34 -11 9 C-9.93458984 8.15115234 -9.93458984 8.15115234 -8.84765625 7.28515625 C-7.92855469 6.55167969 -7.00945312 5.81820313 -6.0625 5.0625 C-5.14597656 4.33160156 -4.22945312 3.60070312 -3.28515625 2.84765625 C-1.59148731 1.48061289 -1.59148731 1.48061289 0 0 Z " fill="#64B6A9" transform="translate(185,495)"/>
<path d="M0 0 C0.99 0.33 1.98 0.66 3 1 C1.92319498 2.13125022 0.83824365 3.25474919 -0.25 4.375 C-0.85328125 5.00148438 -1.4565625 5.62796875 -2.078125 6.2734375 C-3.9700588 7.97310161 -5.68201309 8.98459866 -8 10 C-7.67 8.68 -7.34 7.36 -7 6 C-6.01 6 -5.02 6 -4 6 C-3.67 5.01 -3.34 4.02 -3 3 C-2.34 3 -1.68 3 -1 3 C-0.67 2.01 -0.34 1.02 0 0 Z " fill="#6DBAB0" transform="translate(579,527)"/>
<path d="M0 0 C1.35862973 3.90480249 0.89469712 7.7101776 0.5625 11.75 C0.51029297 12.44738281 0.45808594 13.14476562 0.40429688 13.86328125 C0.27525928 15.57596203 0.13840386 17.28805066 0 19 C-0.33 19 -0.66 19 -1 19 C-1.22171552 16.39634072 -1.42784859 13.79303507 -1.625 11.1875 C-1.68945312 10.44951172 -1.75390625 9.71152344 -1.8203125 8.95117188 C-2.2265625 3.33984375 -2.2265625 3.33984375 0 0 Z " fill="#67B6AB" transform="translate(115,451)"/>
<path d="M0 0 C0.66 0.33 1.32 0.66 2 1 C1.67 1.66 1.34 2.32 1 3 C1.8971875 3.37125 1.8971875 3.37125 2.8125 3.75 C5.28647521 5.16370012 6.43370255 6.65055383 8 9 C7.67 9.66 7.34 10.32 7 11 C5.82737096 9.88121617 4.66204862 8.75476949 3.5 7.625 C2.8503125 6.99851562 2.200625 6.37203125 1.53125 5.7265625 C0 4 0 4 0 2 C-0.66 1.67 -1.32 1.34 -2 1 C-1.34 0.67 -0.68 0.34 0 0 Z " fill="#64B9AD" transform="translate(117,524)"/>
<path d="M0 0 C5.65611463 -0.56561146 9.22642128 1.28608722 14 4 C14 4.99 14 5.98 14 7 C13.44828125 6.71382813 12.8965625 6.42765625 12.328125 6.1328125 C9.84094711 4.92260849 7.32252247 3.8904694 4.75 2.875 C3.85796875 2.52179688 2.9659375 2.16859375 2.046875 1.8046875 C1.03367188 1.40636719 1.03367188 1.40636719 0 1 C0 0.67 0 0.34 0 0 Z " fill="#68B8AC" transform="translate(165,414)"/>
<path d="M0 0 C2.65664779 0.15180845 4.45217862 0.52011425 6.48046875 2.296875 C7.875 3.875 7.875 3.875 10 7 C9.67 7.99 9.34 8.98 9 10 C7.88625 8.63875 7.88625 8.63875 6.75 7.25 C4.62325416 4.6930577 2.39770184 2.30889807 0 0 Z " fill="#E5FBFA" transform="translate(1012,386)"/>
<path d="M0 0 C3.26008643 3.16952847 6.22237877 6.39937989 9 10 C7.0625 9.6875 7.0625 9.6875 5 9 C4.67 8.01 4.34 7.02 4 6 C3.34 6 2.68 6 2 6 C2 5.34 2 4.68 2 4 C1.34 4 0.68 4 0 4 C0 2.68 0 1.36 0 0 Z " fill="#E1FCFA" transform="translate(619,525)"/>
<path d="M0 0 C0.66 0.33 1.32 0.66 2 1 C-6.261959 6.74031891 -6.261959 6.74031891 -11 6 C-8.66460191 4.44306794 -6.42031244 3.09799354 -3.9375 1.8125 C-2.89916016 1.26529297 -2.89916016 1.26529297 -1.83984375 0.70703125 C-1.23269531 0.47371094 -0.62554688 0.24039063 0 0 Z " fill="#DDF8F6" transform="translate(564,541)"/>
<path d="M0 0 C1.875 0.25 1.875 0.25 4 1 C5.72101535 3.58152302 6 4.84918025 6 8 C1.125 3.375 1.125 3.375 0 0 Z " fill="#65B6AB" transform="translate(895,411)"/>
<path d="M0 0 C-5.75 4 -5.75 4 -8 4 C-8 3.34 -8 2.68 -8 2 C-8.66 1.67 -9.32 1.34 -10 1 C-3.375 -1.125 -3.375 -1.125 0 0 Z " fill="#62B8AA" transform="translate(209,537)"/>
<path d="M0 0 C1.32 0 2.64 0 4 0 C4 1.32 4 2.64 4 4 C4.99 4.66 5.98 5.32 7 6 C6.01 6.495 6.01 6.495 5 7 C2.5 5.1875 2.5 5.1875 0 3 C0 2.01 0 1.02 0 0 Z " fill="#6CBDB2" transform="translate(894,530)"/>
<path d="M0 0 C0.53625 0.2475 1.0725 0.495 1.625 0.75 C-3.55078125 3.97265625 -3.55078125 3.97265625 -5.375 4.75 C-6.365 4.42 -7.355 4.09 -8.375 3.75 C-2.95961538 -0.31153846 -2.95961538 -0.31153846 0 0 Z " fill="#E0FBFA" transform="translate(542.375,508.25)"/>
<path d="M0 0 C0.99 0.33 1.98 0.66 3 1 C0.03 3.475 0.03 3.475 -3 6 C-2.625 3.5625 -2.625 3.5625 -2 1 C-1.34 0.67 -0.68 0.34 0 0 Z " fill="#5FB6A7" transform="translate(712,531)"/>
<path d="M0 0 C0.66 0 1.32 0 2 0 C0.79618552 2.49361571 -0.45428722 4.68143083 -2 7 C-2.66 7 -3.32 7 -4 7 C-2.92598892 4.08482708 -2.22189824 2.22189824 0 0 Z " fill="#E2F9F8" transform="translate(932,479)"/>
</svg>
